<svg width="1024" height="1024" xmlns="http://www.w3.org/2000/svg" xml:space="preserve" enable-background="new 0 0 1024 1024" version="1.1">

 <g>
  <title>Layer 1</title>
  <path id="svg_2" d="m413.00876,79.91726c7.42084,-3.42833 15.97149,-3.86258 22.70492,-9.46707c2.21012,-1.83953 6.61576,-1.01688 10.01081,-1.46189c9.18008,-1.2033 18.35672,-2.43314 27.53451,-3.65392c0.80918,-0.10764 1.61551,-0.31336 2.42557,-0.32667c21.24164,-0.34898 42.50433,-1.38847 63.71851,-0.76979c14.93243,0.43548 29.96868,0.82639 44.74713,4.5651c14.9555,3.78352 30.37249,5.72239 45.3753,9.34701c10.50708,2.53848 20.71009,6.40137 30.95154,9.95343c8.1012,2.80976 16.21265,5.69178 24.03394,9.18173c10.16595,4.53615 20.10486,9.59625 30.03674,14.63722c8.40131,4.26414 16.87042,8.46463 24.91278,13.34684c8.66754,5.26177 17.04474,11.0494 25.23767,17.03339c10.20813,7.4559 20.36835,15.02628 30.03302,23.16056c6.72998,5.6643 12.63306,12.31944 18.83051,18.60597c8.14849,8.26578 16.6112,16.26614 24.22424,25.00331c8.17395,9.3809 15.6247,19.40332 23.18622,29.30225c4.30584,5.63691 8.40259,11.45947 12.2019,17.44694c2.01422,3.1743 3.19184,6.8795 4.36145,10.71813c-1.46527,-0.60267 -2.71148,-1.44703 -3.59979,-2.57358c-15.85522,-20.10537 -33.77344,-38.27816 -53.83044,-54.06662c-66.28986,-52.18205 -141.54352,-81.39629 -225.98127,-85.72311c-38.21966,-1.95847 -75.91613,2.18065 -112.93359,12.33709c-60.67929,16.6485 -112.98294,47.7321 -158.42487,90.89786c-35.13342,33.37359 -62.91507,71.91684 -82.2695,116.41366c-11.89775,27.35352 -19.53637,55.91501 -23.3251,85.46402c-1.3358,10.41809 -1.69617,20.96125 -2.50192,31.4473c1.65873,-2.94431 2.01046,-6.03015 2.61879,-9.06451c0.64959,-3.24036 1.48462,-6.44724 2.33595,-9.64283c15.99446,-60.03686 49.3967,-108.23779 99.12005,-145.21304c46.92606,-34.89511 99.7316,-55.7175 157.66303,-65.05217c11.39472,-1.25012 22.35993,-3.11281 33.38577,-3.59889c15.04575,-0.66327 30.13773,-0.2778 45.66635,-0.26932c30.75873,1.12263 60.30988,6.7226 89.32135,15.21231c54.81562,16.04083 103.0124,42.90909 140.09205,87.34882c19.63061,23.52725 33.83923,49.81201 38.51055,80.97027c0.88349,9.09186 2.90455,17.86539 2.34974,26.4729c-0.95215,14.77091 -3.51294,29.43811 -5.54181,44.52393c-0.72162,2.61084 -1.22595,4.86871 -1.88874,7.07907c-14.20874,47.38364 -43.5617,84.03238 -81.43396,114.58017c-15.66784,12.63776 -33.08087,22.5351 -51.31103,31.74554c-3.82263,1.72242 -7.27887,3.37433 -10.68469,5.03724c0.05035,0.01098 0.031,-0.09034 -0.31934,-0.03717c-1.80127,0.72045 -3.25208,1.38781 -4.65991,2.06713c0.04297,0.01191 0.03137,-0.0766 -0.34686,-0.03418c-14.4292,4.45331 -28.48023,8.8642 -42.80237,13.23572c-0.44458,0.01825 -0.61792,0.07575 -1.03821,0.11096c-0.61273,0.05109 -0.8421,0.2685 -0.86584,0.65149c0.06909,0.02149 0.06903,-0.12323 -0.34931,-0.08972c-10.10211,1.81561 -19.78595,3.59772 -29.74176,5.33563c-0.44739,0.01068 -0.6228,0.06549 -1.2077,0.11078c-12.76966,1.23004 -25.10468,2.9101 -37.49518,3.61963c-27.70203,1.58643 -55.39798,1.07013 -83.28668,-1.71362c-0.4267,-0.03858 -0.59943,-0.00562 -1.16379,-0.04395c-5.45569,-0.35803 -10.51978,-0.64471 -15.79926,-0.99926c-0.21539,-0.06787 -0.66391,-0.12073 -0.87908,-0.46619c-2.11228,-0.47003 -4.00941,-0.59467 -5.90488,-0.68164c0.00162,0.03766 0.07397,0.0166 -0.13538,-0.32239c-4.09564,-0.74078 -7.98193,-1.14258 -12.08383,-1.58368c-0.21561,-0.03931 -0.65277,-0.07062 -0.84836,-0.40845c-15.41464,-3.8518 -30.63369,-7.36584 -45.86377,-10.82c-0.01101,0.05975 0.10858,0.0379 -0.11505,-0.23706c-1.35382,-0.54834 -2.48398,-0.82166 -3.65344,-1.0824c-0.03928,0.01251 -0.09695,0.07147 -0.31696,-0.15399c-1.03854,-0.43085 -1.85708,-0.63629 -2.72448,-0.82569c-0.04886,0.01606 -0.04187,0.11866 -0.29233,-0.1336c-4.01761,-1.45893 -7.78479,-2.66565 -11.60373,-3.8739c-0.05176,-0.00159 -0.15271,-0.02466 -0.36115,-0.22315c-0.7821,-0.30713 -1.35571,-0.41571 -1.9364,-0.46295c-0.00702,0.06134 0.1131,0.03247 -0.10699,-0.25458c-2.77829,-1.12225 -5.33652,-1.95746 -7.89756,-2.73181c-0.00283,0.06085 0.11405,0.02643 -0.0895,-0.26306c-2.43293,-1.1214 -4.66226,-1.95337 -6.90079,-2.73132c-0.00919,0.05389 0.09793,0.03155 -0.10455,-0.25995c-3.09336,-1.47516 -5.98426,-2.65882 -8.87845,-3.77716c-0.00327,0.06524 0.11972,0.02099 -0.043,-0.24878c-0.7637,-0.44483 -1.36469,-0.61987 -1.9697,-0.73218c-0.004,0.06268 0.11606,0.02576 -0.04937,-0.24194c-0.76771,-0.43769 -1.36991,-0.60755 -1.97309,-0.72095c-0.00097,0.05646 0.1073,0.02417 -0.04404,-0.24963c-0.89837,-0.57666 -1.64544,-0.87952 -2.47158,-1.20447c-0.0791,-0.02222 -0.24323,-0.02973 -0.38782,-0.21485c-0.44028,-0.30719 -0.74777,-0.37756 -1.07263,-0.3432c-0.00547,0.0531 0.09695,0.02283 -0.05963,-0.24859c-0.74811,-0.46283 -1.33966,-0.6543 -1.93689,-0.78302c-0.00568,0.06268 0.11511,0.0271 -0.06967,-0.26093c-1.99659,-1.19922 -3.80838,-2.11047 -5.62043,-2.97473c-0.00024,0.04694 -0.06689,-0.01923 -0.21286,-0.23163c-0.48101,-0.29217 -0.81607,-0.37195 -1.15307,-0.41131c-0.00199,0.04034 0.07342,0.01135 -0.07911,-0.25788c-0.7308,-0.47064 -1.30908,-0.67206 -1.88903,-0.81707c-0.00168,0.05639 0.10687,0.02551 -0.03836,-0.24878c-0.71717,-0.49909 -1.28913,-0.72382 -1.874,-0.88331c-0.01297,0.06531 0.11039,0.01514 -0.06585,-0.24658c-1.12232,-0.70794 -2.06842,-1.15411 -3.03278,-1.55664c-0.01825,0.04358 0.07001,0.00965 -0.08105,-0.27283c-0.72895,-0.55639 -1.30683,-0.83032 -2.10306,-1.34399c-28.23242,-17.70276 -52.96448,-38.75513 -72.16416,-65.88751c-1.16743,-1.64972 -2.77165,-2.99048 -4.36932,-4.73981c-1.53796,-2.80206 -2.87926,-5.33923 -4.26341,-8.23034c-2.68486,-5.14887 -5.32684,-9.94391 -7.95307,-14.92994c0.01577,-0.19098 -0.19804,-0.50909 -0.2107,-0.87194c-5.30683,-15.72452 -11.20357,-30.91224 -15.70437,-46.503c-3.59806,-12.46371 -5.49777,-25.41769 -8.10652,-38.48736c-0.04103,-0.77161 -0.12683,-1.20993 -0.1535,-2.03076c-0.29128,-2.12497 -0.64166,-3.8674 -0.93182,-5.94431c-0.00596,-0.78079 -0.07212,-1.22714 -0.07566,-2.05868c-0.25801,-2.13117 -0.57866,-3.87714 -0.8399,-5.99659c-0.03426,-1.1217 -0.12793,-1.86999 -0.15763,-3.04522c-0.27864,-3.13822 -0.6213,-5.84946 -0.89685,-8.93531c-0.00726,-1.12887 -0.08163,-1.88311 -0.09292,-3.10199c0.02061,-12.15145 -0.02187,-23.83831 0.02099,-35.89575c0.04818,-1.12625 0.01104,-1.88186 0.0745,-3.03283c0.34369,-4.46232 0.58674,-8.52924 0.91037,-12.96637c0.07013,-1.12442 0.05971,-1.87858 0.19746,-2.97992c0.33736,-2.11472 0.52654,-3.8823 0.79677,-5.9802c0.06131,-0.78137 0.04156,-1.23239 0.1775,-2.01321c0.35296,-1.7721 0.55022,-3.21439 0.83048,-4.98389c0.07637,-0.77457 0.06975,-1.22192 0.25473,-2.00244c3.34247,-14.44699 6.49335,-28.56085 9.76762,-43.03021c1.72869,-5.47012 3.33396,-10.58472 5.14411,-16.19385c-0.01355,-0.77679 -0.23198,-1.05899 -0.4612,-1.40973c-0.01079,-0.06848 -0.02066,-0.20685 0.29061,-0.04236c0.48416,0.0058 0.65704,-0.15295 0.96777,-0.50476c1.93165,-4.80618 3.72548,-9.41931 5.55501,-14.08456c0.03569,-0.05213 0.11221,-0.15262 0.30212,-0.44791c1.07803,-2.55136 1.76949,-4.9104 2.88699,-7.04648c6.092,-11.6447 12.28888,-23.23453 18.40273,-34.86084c-0.04694,-0.0176 0.00879,0.06575 0.31059,-0.10043c2.88558,-4.43425 5.46935,-8.70229 8.24217,-13.07855c0.18906,-0.10822 0.29386,-0.5311 0.48801,-0.74164c0.91559,-1.33424 1.63705,-2.45795 2.36404,-3.63083c0.00553,-0.04919 0.09803,-0.08449 0.31354,-0.33063c2.36908,-3.34915 4.52268,-6.45219 6.7077,-9.61093c0.03147,-0.05571 0.13285,-0.13371 0.34223,-0.34659c1.01654,-1.34162 1.82373,-2.47036 2.6611,-3.65501c0.03018,-0.05589 0.13132,-0.13277 0.3335,-0.33543c0.57867,-0.85672 0.95517,-1.51079 1.6102,-2.28226c0.94143,-1.09961 1.6044,-2.08183 2.49411,-3.30707c2.32556,-2.81622 4.42431,-5.38945 6.57724,-8.02286c0.0541,-0.06018 0.16507,-0.17804 0.39959,-0.38757c2.15711,-2.55627 4.07968,-4.90298 6.30036,-7.40546c15.65994,-16.99833 31.99936,-32.8582 50.67206,-45.95867c12.23294,-8.58246 25.36471,-15.88383 38.4288,-23.82712c1.26343,-0.68576 2.19195,-1.30338 3.29043,-1.88086c0.16996,0.04013 0.40653,-0.21683 0.6958,-0.22208c0.54081,-0.28218 0.7923,-0.5591 1.34931,-0.82799c0.99368,-0.39999 1.68191,-0.80803 2.66168,-1.20744c0.55804,-0.25816 0.82459,-0.52496 1.26779,-0.75279c0.17667,0.03898 0.43381,-0.21559 0.73874,-0.21927c0.59058,-0.27596 0.87622,-0.54825 1.45282,-0.80649c0.93717,-0.36957 1.58338,-0.75317 2.52197,-1.14713c0.76474,-0.32709 1.23709,-0.64382 2.05994,-0.956c1.78546,-0.69599 3.22046,-1.39655 4.94495,-2.08149c0.75766,-0.30469 1.22586,-0.62501 2.02856,-0.93086c1.1207,-0.36143 1.90683,-0.73734 3.02026,-1.10237c0.64719,-0.26841 0.96708,-0.54768 1.63025,-0.82333c2.90543,-1.05046 5.46759,-2.10453 8.02976,-3.15861m-55.01724,303.62537c-11.3924,18.36133 -14.7229,38.10108 -9.99649,59.16922c9.33526,41.61219 48.02044,61.64157 82.11529,55.0325c37.71118,-7.31009 67.64954,-43.23394 58.99167,-87.41241c-6.07172,-30.98196 -31.74472,-56.06424 -62.52274,-59.11362c-28.60089,-2.83368 -51.51101,8.11646 -68.58773,32.32431m226.71283,92.23145c18.90875,18.56653 41.39953,27.33285 67.57141,21.38281c41.99713,-9.54794 65.2995,-47.04672 55.59259,-88.94772c-6.21405,-26.82361 -22.53553,-45.82944 -49.13532,-54.04282c-26.43725,-8.16315 -50.63464,-2.16372 -70.20471,17.28263c-28.0437,27.8663 -31.20056,72.65856 -3.82397,104.3251z" fill="#FDFBF8"/>
  <path id="svg_3" d="m398.01044,85.91681c-1.435,0.70056 -2.87,1.40112 -4.8205,1.86632c-1.07275,0.24214 -1.63003,0.71964 -2.18731,1.19714c-0.64618,0.38361 -1.29239,0.76721 -2.51368,1.205c-0.8746,0.28343 -1.1741,0.51269 -1.47363,0.74195c0,0 -0.25714,0.25457 -0.69934,0.28508c-0.72608,0.24522 -1.00995,0.45993 -1.29379,0.67466c-0.68824,0.40805 -1.37647,0.81609 -2.63379,1.29027c-0.83771,0.29711 -1.10633,0.52808 -1.37494,0.75905c0,0 -0.23657,0.25696 -0.80088,0.19074c-1.45321,0.61421 -2.3421,1.29465 -3.23098,1.97509c-12.72919,7.87515 -25.86096,15.17652 -38.0939,23.75898c-18.6727,13.10047 -35.01212,28.96034 -51.03736,45.97405c-4.05792,1.49155 -7.38449,2.86243 -6.16958,7.59961c0,0 -0.11097,0.11786 -0.51279,0.02106c-4.07105,1.56978 -7.23233,3.59729 -6.4563,8.42285c-0.66293,0.98223 -1.3259,1.96445 -2.63446,3.10053c-0.91214,0.9187 -1.17871,1.68358 -1.44525,2.44845c0,0 -0.10114,0.07688 -0.5177,-0.00873c-1.10575,1.27938 -1.79492,2.64438 -2.4841,4.00939c0,0 -0.10138,0.078 -0.48609,-0.01019c-4.77975,1.8444 -7.09042,5.05487 -6.56997,10.00097c0,0 -0.0925,0.0353 -0.49305,-0.03969c-3.17446,0.31804 -3.47341,1.79079 -2.16317,3.96555c0,0 -0.1048,0.42288 -0.59232,0.31186c-4.74722,3.45746 -8.28837,7.4366 -8.24551,13.46397c0,0 -0.05573,-0.08335 -0.36695,-0.05751c-1.42089,0.95145 -2.94149,1.65622 -3.57617,2.83715c-5.78228,10.75885 -11.53033,21.54091 -16.96995,32.4746c-0.95299,1.91549 -0.42134,4.56963 -0.57535,6.88262c0,0 -0.07652,0.10049 -0.49939,0.05347c-2.78314,1.44842 -7.22308,11.3507 -6.48468,13.65106c0.1071,0.33368 0.77216,0.48825 1.17901,0.72571c-0.17289,0.15875 -0.34577,0.3175 -1.0633,0.46478c-0.63129,0.0928 -0.7179,0.19702 -0.80451,0.30121c0.25267,-0.11447 0.50536,-0.22894 0.75806,-0.34342c0.21843,0.28223 0.43686,0.56443 0.11709,1.3747c-4.34059,5.17166 -5.97325,10.53436 -6.12606,16.65274c-1.0841,2.54944 -2.02738,4.8938 -2.62651,7.323c-2.35773,9.5596 -4.74651,19.11633 -6.78815,28.7453c-0.44905,2.11792 0.47757,4.52746 0.77071,6.80273c0.00662,0.44733 0.01324,0.89468 -0.41446,1.71234c-2.82995,1.90845 -4.28847,3.48493 -0.63483,5.2706c0.01974,0.45102 0.03949,0.90204 -0.38335,1.73099c-3.14123,2.28195 -4.0356,4.229 -0.58342,6.27979c0.01043,0.75417 0.02085,1.50833 -0.41539,2.70678c-3.41433,4.38928 -3.50764,10.43448 -0.64488,13.28769c0.03716,0.75562 0.0743,1.51123 -0.33958,2.7189c-0.8182,0.95911 -1.48957,1.4556 -1.50765,1.97483c-0.36162,10.39202 -0.72725,20.78585 -0.82582,31.18188c-0.00981,1.03241 1.70223,2.08109 2.61511,3.12222c0.07436,0.75428 0.14873,1.50852 -0.22056,2.71906c-1.97032,3.78696 -3.47754,7.11398 1.20941,9.28061c0.09369,0.74826 0.18736,1.49655 -0.14917,2.69372c-2.07561,2.98651 -3.61972,5.4968 1.14807,6.30631c0.06616,0.44635 0.13232,0.8927 -0.17851,1.71475c-4.05679,3.45944 -1.24111,4.82144 1.1895,6.28552c0.08578,0.43836 0.17158,0.87668 -0.09888,1.80008c-0.22871,4.6532 -0.55791,8.89859 0.13112,12.97174c1.09155,6.45276 2.67431,12.84195 4.39369,19.16437c2.57326,9.4624 5.34409,18.87467 8.22639,28.24814c1.86335,6.0596 3.78722,12.1348 6.26635,17.95492c1.07132,2.51514 0.38261,6.8971 5.11749,6.86225c0,0 0.21381,0.31811 0.16943,0.91119c1.83867,5.19513 3.67092,9.81977 5.68674,14.36298c0.19228,0.43335 1.5312,0.35797 2.3378,0.51874c1.34129,2.53723 2.68259,5.0744 4.41052,8.20642c1.71501,3.0802 2.98502,5.59875 4.38053,8.04583c18.71957,32.82514 43.48709,60.66297 71.10461,86.53742c1.4754,6.2655 1.40463,6.36249 -4.8331,7.44629c-1.92111,0.33374 -4.64059,0.0437 -5.58328,1.19488c-1.85248,2.26233 -6.68308,-1.38257 -6.92011,3.7392c-0.76739,0.09247 -1.21124,0.10126 -1.70471,-0.22198c-1.51639,-0.36719 -3.10873,-0.79493 -4.42895,-0.37244c-7.41617,2.37378 -14.80887,4.8407 -22.09241,7.58661c-1.04096,0.39239 -1.44562,2.47253 -2.25745,3.82373c-0.11267,0.05212 -0.36081,0.06006 -0.76837,-0.17328c-3.20877,-0.87042 -4.4476,0.26501 -4.39953,3.2641c-0.38715,0.18939 -0.56367,0.21417 -0.85425,-0.13794c-4.14911,-2.31397 -2.74872,0.9812 -3.20795,2.92908c-3.0863,2.96991 -5.99735,5.66577 -9.28369,8.35791c-4.75267,1.58068 -5.24907,2.38421 -3.66185,5.56335c-0.09618,0.3974 -0.1877,0.54034 -0.67714,0.62756c-1.72121,2.00623 -3.8503,3.93812 -4.20775,6.15564c-0.86726,5.38013 -0.44519,10.97901 -1.43239,16.32544c-0.79077,4.28266 1.23949,4.41089 4.43479,4.72486c0.36085,1.28601 0.49228,2.15692 0.39502,2.90686c-0.37635,-0.04541 -0.52401,0.03021 -0.67166,0.10577c0.30389,0.11682 0.6078,0.23358 1.09551,0.06256c0.39889,-0.21319 0.61397,-0.13855 0.58869,0.30994c0.48196,1.06079 1.20431,1.74786 2.02502,2.5108c0.09838,0.07593 0.20993,0.29804 0.00409,0.66834c-1.68007,5.60846 3.4522,6.39349 5.84645,8.66504c4.76876,4.5241 9.34676,9.78143 16.65386,10.31366c-0.03891,0.02917 -0.00748,-0.06287 0.00613,0.30047c3.61133,2.79676 7.08515,5.45172 10.86267,7.56348c1.70767,0.95465 4.01935,0.82892 6.06391,1.57294c1.70523,5.25067 5.72775,5.66882 10.3313,5.5498c0.77349,-0.71484 1.22097,-1.3811 2.00552,-2.03772c1.13058,0.32587 1.9241,0.64209 2.62277,1.2168c0.28207,0.79876 0.659,1.33899 1.32904,2.0028c2.25769,0.70429 4.19315,1.53559 6.19815,1.7685c1.13657,0.13208 2.38712,-0.71686 3.91461,-1.11969c0.75101,0.11627 1.17377,0.22821 1.6081,0.73486c2.33734,1.09845 4.66311,1.80231 7.13537,2.72614c0.7096,0.07464 1.27274,-0.07074 1.8443,-0.46875c0.00733,-0.42121 0.00614,-0.58979 0.34091,-0.80255c0.7801,0.0274 1.22419,0.09918 1.67563,0.53497c1.98264,2.82166 8.4159,4.03943 10.74765,2.35828c0.20166,-0.14539 0.16895,-0.61579 0.62079,-0.9823c1.12506,0.04827 1.87442,0.14367 2.63449,0.62628c2.02292,3.72137 4.01679,3.64795 6.39255,0.2998c1.46503,0.06751 2.53088,0.19031 3.61209,0.72095c1.09958,1.09552 2.17359,2.36047 3.26963,2.37982c9.07836,0.16077 18.16345,0.19507 27.23876,-0.03589c1.17881,-0.02997 2.31363,-1.78711 3.80021,-2.81628c0.77954,-0.03003 1.22766,0.01196 1.67346,0.28241c-0.00238,0.22851 0.01294,0.68518 0.24405,0.9491c1.73748,0.0866 3.24389,-0.0907 5.19772,-0.26978c2.18518,-0.63953 3.92294,-1.27728 5.88699,-1.78876c0.16684,0.28851 0.10743,0.45075 0.34815,0.85346c1.63882,0.14025 2.97757,0.03997 4.62918,-0.10095c0.77173,-0.65174 1.23056,-1.26288 2.0133,-1.97779c0.77375,-0.11175 1.22361,-0.11969 1.67283,0.1579c0.0017,0.47589 0.00405,0.66626 0.14651,1.13714c1.38245,0.09339 2.62482,-0.09375 4.18817,-0.14007c1.85651,0.53986 3.39197,0.93878 5.01557,1.33148c0.08813,-0.00629 0.24612,0.073 0.0722,0.4596c-0.0965,5.67242 4.81558,5.62915 7.83908,6.83783c6.08313,2.4317 12.39365,4.06067 16.38214,9.94134c0.47794,0.70465 2.2963,0.42798 3.44846,0.76148c3.05688,0.88488 8.43362,1.37945 8.73605,2.87097c1.52155,7.50421 6.63049,3.06286 10.08075,3.85901c1.15705,0.26696 2.62027,0.59033 3.27805,1.41729c4.8627,6.11347 4.8096,6.15522 11.36422,3.0517c0.59958,-0.28381 1.20343,-0.55859 1.98453,-0.83765c0.17929,0.00006 0.478,0.19843 0.62955,0.52381c2.06845,1.37994 3.94574,2.51593 5.91055,3.4721c4.1189,2.0044 8.28382,3.91419 12.91175,6.0893c1.45556,-0.07886 3.85696,-0.7074 6.01379,-0.23029c5.93549,1.31287 11.80401,2.97229 17.62225,4.74671c1.97595,0.6026 3.99378,1.65448 5.52307,3.0249c4.55158,4.07867 10.86011,4.4209 16.28376,0.53607c1.83764,-0.02167 3.25158,-0.04187 4.62927,-0.05047c-0.03619,0.01165 -0.03949,-0.06434 0.21411,0.24664c2.44464,0.46289 4.63562,0.61487 7.06006,0.79724c0.2334,0.03046 0.68579,0.1607 0.9768,0.41333c6.5069,1.02899 12.711,2.3382 18.94105,2.47571c15.0415,0.33215 30.14855,0.9151 45.12982,-0.0871c17.25683,-1.15442 34.43603,-3.6972 51.58368,-6.10217c4.46667,-0.62641 8.69073,-2.98297 13.33862,-4.64215c0.74463,-0.14832 1.177,-0.19947 1.80127,0.0249c4.30115,-0.53461 8.99365,0.27899 12.24487,-4.05035c1.76862,-0.60029 3.17786,-1.07013 4.58393,-1.54932c56.27276,-19.17877 104.67175,-50.51001 145.28613,-93.9336c32.41852,-34.66082 56.55267,-74.42126 72.77948,-118.91259c5.08423,-13.94 8.70087,-28.41529 12.98926,-42.64551c-0.03644,4.88763 0.47894,9.85333 -0.19916,14.65027c-4.33856,30.6933 -10.2525,61.08844 -20.06439,90.54345c-8.41913,25.27411 -19.30274,49.50416 -32.06952,72.93818c-12.5904,23.11004 -27.29761,44.7456 -43.44721,65.44366c-13.82593,17.71997 -29.31146,33.8609 -46.02197,48.92816c-18.5462,16.72242 -38.32086,31.75769 -59.33014,45.16474c-27.28333,17.41088 -56.07709,32.0025 -87.08887,41.31195c-23.42334,7.03155 -47.30475,12.77807 -71.27704,17.64483c-13.20361,2.68055 -27.00927,2.4599 -40.55578,3.36255c-7.77985,0.51837 -15.59265,1.05896 -23.37561,0.89136c-11.59345,-0.24951 -23.26529,-0.40399 -34.73877,-1.88086c-19.00043,-2.44568 -38.03952,-5.12695 -56.74374,-9.17944c-17.12449,-3.71021 -34.22666,-8.30011 -50.61399,-14.43738c-20.17779,-7.55682 -40.05447,-16.23828 -59.23871,-26.04315c-22.16714,-11.32953 -43.32586,-24.65821 -62.25905,-41.00171c-15.07415,-13.01239 -29.67312,-26.58679 -44.23924,-40.1731c-16.23041,-15.13873 -29.72737,-32.69024 -42.0088,-51.0224c-11.99723,-17.9079 -23.56206,-36.21405 -33.79714,-55.16595c-12.38214,-22.92755 -23.16868,-46.7619 -30.00071,-72.04395c-5.99748,-22.19385 -11.78227,-44.48059 -16.50833,-66.96856c-2.67352,-12.7215 -3.25635,-25.9115 -4.35226,-38.92658c-0.98704,-11.72195 -2.44575,-23.55002 -1.81612,-35.22995c1.09387,-20.29169 3.4771,-40.52212 5.61342,-60.74725c2.71571,-25.71042 10.24583,-50.30301 18.23475,-74.73072c9.81345,-30.00653 24.0276,-57.88519 40.64978,-84.71667c21.45511,-34.63278 47.99893,-64.92305 77.78831,-92.34434c20.76978,-19.11866 43.78139,-35.48157 68.26778,-49.70059c24.95688,-14.4922 51.19812,-26.10924 78.56754,-35.07381c14.00543,-4.58732 28.38,-8.05411 42.62258,-11.89831c1.15204,-0.31095 2.5745,0.37989 3.9502,0.96876c-2.48328,1.41761 -5.04544,2.47168 -8.25644,3.59277c-0.98321,0.29195 -1.31757,0.51688 -1.65195,0.74182c-0.78616,0.37591 -1.57229,0.75182 -2.85699,0.88683c-1.05039,0.21997 -1.60223,0.68081 -2.15405,1.14166z" fill="#171815"/>
  <path id="svg_4" d="m481.00699,789.04181c0,0 -0.29871,-0.19837 -0.72791,-0.47662c-21.99459,-7.69934 -42.74389,-16.95264 -62.68945,-28.01038c0,0 -0.15799,-0.07929 -0.45297,-0.30048c-1.69937,-1.19262 -3.10379,-2.16406 -4.10456,-3.24621c1.53281,-0.39075 2.6529,-0.7157 3.79233,-0.94397c15.61865,-3.12934 30.11823,-8.76422 42.83939,-18.62134c18.84347,-14.60089 20.6745,-34.43396 4.59665,-52.02087c-10.25367,-11.21607 -23.67044,-17.34528 -37.47336,-23.34571c-2.03506,-0.9151 -3.983,-1.44152 -5.9126,-1.95685c0.01828,0.01117 -0.01907,0.03437 -0.14072,-0.26025c-1.0205,-0.99872 -1.91937,-1.70282 -3.1173,-2.64117c6.53646,0.96576 12.53015,1.85131 18.5238,2.73687c0,0 0.43716,0.03131 0.91934,0.34156c4.33032,0.75738 8.17847,1.20459 12.02661,1.65173c0,0 -0.07235,0.02106 0.17633,0.2915c2.12238,0.41999 3.99607,0.56952 5.86975,0.719c0,0 0.44852,0.05286 0.95874,0.37683c5.63886,0.48749 10.76743,0.65094 15.89603,0.81445c0.17276,-0.03296 0.34549,-0.06592 0.88001,0.34925c0.73278,0.75579 1.08453,1.30432 1.47769,1.33587c9.39892,0.75305 18.7926,1.85907 28.20663,2.08148c27.39304,0.64734 54.76529,0.02735 82.02597,-3.01342c3.18433,-0.35517 6.25171,-1.75922 9.37329,-2.67701c0.17536,-0.05481 0.35077,-0.10962 1.09491,0.13569c6.36713,-0.42261 12.21765,-0.87104 17.94611,-1.96106c4.05786,-0.7721 7.95074,-2.41169 11.91724,-3.66407c0,0 0.00006,0.14472 0.16601,0.10688c0.48047,-0.13385 0.71771,-0.3255 0.87769,-0.61286c0.1734,-0.05749 0.34674,-0.11499 1.02197,0.10321c1.68042,0.74085 2.85901,1.20594 3.70166,1.81629c-1.89002,0.7005 -3.54199,1.07281 -4.9809,1.8432c-5.57898,2.9873 -11.09008,6.10119 -16.63617,9.1228c-0.0097,-0.04523 0.07593,-0.01038 -0.30261,-0.04004c-1.2876,0.79669 -2.19678,1.62305 -3.18213,2.48602c-0.07611,0.03669 -0.23986,0.0785 -0.5011,-0.03027c-0.49261,0.1579 -0.72406,0.42456 -0.96533,0.64215c-0.00995,-0.04913 0.08368,-0.01318 -0.25757,-0.02826c-0.62799,0.45197 -0.91467,0.91901 -1.27417,1.41809c-0.07281,0.03205 -0.2232,0.08393 -0.4884,-0.02313c-0.48962,0.16919 -0.71405,0.44537 -0.95471,0.65741c-0.01624,-0.06415 0.11475,-0.04511 -0.1593,0.0213c-0.47077,0.37244 -0.66742,0.67847 -0.87305,0.92908c-0.00903,-0.05542 0.10144,-0.03516 -0.16473,0.04059c-0.46314,0.37506 -0.6601,0.67443 -0.86579,0.92736c-0.00873,-0.04644 0.07709,-0.00665 -0.25732,-0.00415c-0.57306,0.46723 -0.81171,0.93189 -1.13043,1.47828c-0.08008,0.08172 -0.28669,0.17987 -0.54193,0.04797c-0.31867,0.17792 -0.38208,0.48761 -0.50696,0.86182c-0.06146,0.06445 -0.20057,0.17553 -0.47535,0.07257c-0.33941,0.21802 -0.40411,0.53894 -0.53039,0.92462c-0.06159,0.06463 -0.20294,0.17377 -0.48267,0.07245c-0.37372,0.22705 -0.46783,0.55536 -0.61194,0.89398c-0.04992,0.01025 -0.08172,0.10712 -0.3706,0.03711c-0.35144,0.25989 -0.414,0.58978 -0.52527,0.97766c-0.04864,0.05798 -0.12616,0.18817 -0.44299,0.09595c-0.58283,0.45245 -0.84882,0.99707 -1.13294,1.50268c-0.01806,-0.039 0.06708,-0.02679 -0.1903,0.09229c-0.43372,0.44384 -0.61005,0.76861 -0.87342,1.42444c-9.5282,13.37506 -7.60278,28.17132 1.01111,38.50048c3.67938,4.41211 8.19238,8.37293 12.96722,11.58704c26.17377,17.61878 55.86835,24.70184 86.72358,27.10071c23.60009,1.83478 47.20324,0.56921 70.40289,-4.82617c17.34668,-4.03412 33.6626,-10.16443 46.11584,-23.72101c12.06281,-13.13159 13.41633,-30.03345 2.41327,-43.93207c-4.73364,-5.97937 -10.95636,-11.23981 -17.46661,-15.26965c-22.99609,-14.23462 -48.96991,-19.09082 -75.3714,-20.76758c-19.85699,-1.26117 -39.85296,-0.3324 -60.0578,-0.63318c-1.51483,-0.18036 -2.75854,-0.09912 -4.00311,-0.03308c-2.58167,0.13696 -5.16382,0.26575 -7.45288,0.27466c3.93994,-1.39521 7.67273,-2.46784 11.21191,-3.99066c4.23084,-1.82032 8.2959,-4.0257 12.43274,-6.06434c0,0 0.0116,0.08851 0.3573,0.11255c1.771,-0.70276 3.19629,-1.4295 4.62158,-2.15625c0,0 0.01935,0.10132 0.38581,0.13617c3.78906,-1.69464 7.21167,-3.42407 10.63421,-5.15356c17.86383,-9.13995 35.27686,-19.03729 50.9447,-31.67505c37.87226,-30.54779 67.22522,-67.19653 81.43396,-114.58017c0.66279,-2.21036 1.16712,-4.46823 2.1615,-6.96707c0.80683,-0.80264 1.39954,-1.28864 1.55872,-1.8895c4.84961,-18.30059 5.60443,-36.99942 4.81817,-55.75781c-0.19519,-4.6586 -2.26873,-9.2385 -3.47888,-13.85455c-4.65002,-30.76523 -18.85864,-57.04999 -38.48925,-80.57724c-37.07965,-44.43973 -85.27643,-71.30799 -140.09205,-87.34882c-29.01147,-8.48971 -58.56262,-14.08968 -89.43377,-15.59201c-1.26605,-0.8016 -1.95569,-1.43997 -2.6615,-1.45825c-23.66504,-0.61299 -47.27338,0.2121 -70.76923,3.21667c-2.04321,0.26128 -3.9443,1.63404 -5.91144,2.49051c-57.52896,9.33365 -110.3345,30.15604 -157.26056,65.05115c-49.72335,36.97525 -83.12559,85.17618 -99.12005,145.21304c-0.85133,3.19559 -1.68636,6.40247 -2.33595,9.64283c-0.60833,3.03436 -0.96006,6.1202 -2.61879,9.06451c0.80575,-10.48605 1.16612,-21.02921 2.50192,-31.4473c3.78873,-29.54901 11.42735,-58.1105 23.3251,-85.46402c19.35443,-44.49682 47.13608,-83.04007 82.2695,-116.41366c45.44193,-43.16576 97.74558,-74.24936 158.42487,-90.89786c37.01746,-10.15644 74.71393,-14.29556 112.93359,-12.33709c84.43775,4.32682 159.69141,33.54106 225.98127,85.72311c20.057,15.78846 37.97522,33.96125 53.83044,54.06662c0.88831,1.12655 2.13452,1.97091 3.55328,2.96078c7.80475,10.65024 16.01252,20.85419 22.52814,32.04346c6.57581,11.29257 11.66632,23.47574 17.03858,35.43454c3.64965,8.12439 7.24169,16.35873 9.82519,24.85831c3.84784,12.65945 7.27271,25.4945 9.96619,38.44436c2.61523,12.57425 4.11657,25.3822 6.02881,38.09931c0.51116,3.39935 0.9613,6.83575 1.05365,10.26553c0.43267,16.07834 0.84704,32.15912 1.01031,48.24164c0.05328,5.24426 0.86841,11.30713 -1.37366,15.57126c-4.27789,8.13589 -3.34399,17.11044 -6.18884,25.32101c-0.31903,0.92072 -0.27844,1.96607 -0.39996,3.3689c-4.28375,14.64544 -7.90039,29.12073 -12.98462,43.06073c-16.22681,44.49133 -40.36096,84.25177 -72.77948,118.91259c-40.61438,43.42359 -89.01337,74.75483 -145.28613,93.9336c-1.40607,0.47919 -2.81531,0.94903 -4.95991,1.56421c-4.51153,1.34729 -8.28619,2.55365 -12.06085,3.75995c-0.43231,0.05114 -0.86468,0.10229 -1.99603,0.24194c-11.77612,2.32019 -22.85309,4.55188 -34.23578,6.5271c-2.28802,-0.33063 -4.28607,-0.60083 -6.24988,-0.44373c-6.75616,0.54047 -13.48864,1.44764 -20.25183,1.81202c-9.94433,0.5357 -19.90783,0.70812 -29.86102,1.0932c-0.76856,0.02978 -1.51953,0.51562 -2.53735,0.84564c-0.43085,0.01733 -0.60297,-0.02155 -0.88672,-0.44019c-0.97663,-0.72973 -1.81842,-1.30401 -2.71015,-1.3966c-16.40515,-1.70356 -32.81482,-3.36573 -49.22735,-4.9975c-4.64179,-0.46137 -9.2959,-0.79834 -14.33545,-1.17181c-15.46332,-4.26453 -30.53562,-8.54957 -45.60788,-12.83466z" fill="#FD8601"/>
  <path id="svg_6" d="m358.20853,383.2522c16.85971,-23.91742 39.76983,-34.86756 68.37072,-32.03388c30.77802,3.04938 56.45102,28.13166 62.52274,59.11362c8.65787,44.17847 -21.28049,80.10232 -58.99167,87.41241c-34.09485,6.60907 -72.78003,-13.42031 -82.11529,-55.0325c-4.72641,-21.06814 -1.39591,-40.80789 10.2135,-59.45965z" fill="#FE8701"/>
  <path id="svg_7" d="m584.46899,475.50916c-27.14123,-31.40162 -23.98437,-76.19388 4.05933,-104.06018c19.57007,-19.44635 43.76746,-25.44578 70.20471,-17.28263c26.59979,8.21338 42.92127,27.21921 49.13532,54.04282c9.70691,41.901 -13.59546,79.39978 -55.59259,88.94772c-26.17188,5.95004 -48.66266,-2.81628 -67.80677,-21.64773z" fill="#FE8701"/>
  <path id="svg_8" d="m318.0054,641.19617c-27.60876,-25.49164 -52.37628,-53.32947 -71.09585,-86.15461c-1.39551,-2.44708 -2.66552,-4.96563 -4.18384,-7.78094c1.21101,1.15448 2.81523,2.49524 3.98266,4.14496c19.19968,27.13238 43.93174,48.18475 72.26981,66.21753c0.93216,0.81201 1.54031,1.05426 2.14847,1.29645c0,0 -0.08826,0.03393 -0.03974,0.36376c1.09192,0.70154 2.13535,1.07325 3.17875,1.44495c0,0 -0.12336,0.05017 -0.01627,0.30908c0.7131,0.45044 1.31909,0.64191 1.92511,0.83338c0,0 -0.10855,0.03088 0.02551,0.26898c0.72574,0.42267 1.31748,0.60724 1.90918,0.79181c0,0 -0.07541,0.02899 0.05506,0.23877c0.47717,0.26434 0.82388,0.31897 1.17056,0.37359c0,0 0.06665,0.06617 0.07327,0.38788c1.93735,1.17914 3.8681,2.03662 5.79883,2.89411c0,0 -0.12079,0.03558 0.00949,0.28277c0.74313,0.4129 1.35602,0.57874 1.96887,0.74457c0,0 -0.10242,0.03027 0.00504,0.24243c0.44336,0.22913 0.77929,0.2461 1.11523,0.26306c0,0 0.16413,0.00751 0.1745,0.40137c0.90412,0.63147 1.79788,0.86908 2.69165,1.10663c0,0 -0.10827,0.03229 0.03644,0.27545c0.76141,0.39179 1.37808,0.54041 1.99478,0.68903c0,0 -0.12006,0.03692 0.01505,0.28479c0.75717,0.39569 1.37924,0.54358 2.00131,0.6914c0,0 -0.12299,0.04425 0.01169,0.31287c3.07296,1.42407 6.01126,2.57941 8.94952,3.7348c0,0 -0.10712,0.02234 0.00909,0.32385c2.40992,1.08948 4.70362,1.87744 6.99732,2.66541c0,0 -0.11688,0.03442 0.03778,0.30609c2.75839,1.07654 5.36212,1.88141 7.96582,2.68634c0,0 -0.12012,0.02887 0.02869,0.2785c0.76687,0.28321 1.38495,0.31684 2.00305,0.35047c0,0 0.10095,0.02307 0.16003,0.40527c3.98835,1.50336 7.91761,2.62445 11.84687,3.74555c0,0 -0.00699,-0.1026 0.10077,0.26092c1.03372,0.46625 1.95965,0.56891 2.88559,0.67157c0,0 0.05767,-0.05896 0.15508,0.31976c1.33793,0.57447 2.57843,0.77033 3.81894,0.96613c0,0 -0.11959,0.02185 0.01261,0.2757c1.06058,0.98248 1.98895,1.71112 3.32483,2.75952c-11.95331,-1.33222 -23.24747,-2.59101 -35.00864,-3.8562c-8.05508,-0.00647 -15.64319,-0.00647 -23.23126,-0.00647c0.00088,0.26739 0.0018,0.53473 0.00271,0.80212c1.96238,0.09656 3.92478,0.19312 5.50498,0.45032c-4.45435,0.32196 -8.52649,0.48321 -12.74976,0.33935c-3.44729,-3.00439 -6.74344,-5.70373 -10.03958,-8.40307z" fill="#FC8603"/>
  <path id="svg_9" d="m229.91187,522.63355c-4.72222,0.3977 -4.03351,-3.98426 -5.10483,-6.4994c-2.47913,-5.82012 -4.403,-11.89532 -6.26635,-17.95492c-2.8823,-9.37347 -5.65313,-18.78574 -8.22639,-28.24814c-1.71938,-6.32242 -3.30214,-12.71161 -4.39369,-19.16437c-0.68903,-4.07315 -0.35983,-8.31854 -0.17589,-12.63848c2.96501,12.58462 4.86472,25.5386 8.46278,38.00231c4.5008,15.59076 10.39754,30.77848 15.70437,46.503z" fill="#0F0F0D"/>
  <path id="svg_10" d="m593.54114,662.21655c-2.71204,0.92731 -5.77942,2.33136 -8.96375,2.68653c-27.26068,3.04077 -54.63293,3.66076 -82.02597,3.01342c-9.41403,-0.22241 -18.80771,-1.32843 -28.20663,-2.08148c-0.39316,-0.03155 -0.74491,-0.58008 -1.22376,-1.26434c27.52695,2.33563 55.2229,2.85193 82.92493,1.2655c12.3905,-0.70953 24.72552,-2.38959 37.49518,-3.61963z" fill="#FE730C"/>
  <path id="svg_11" d="m358.98532,648.02039c11.29416,1.25872 22.58832,2.51751 34.54163,3.84973c-1.33588,-1.0484 -2.26425,-1.77704 -3.31381,-2.81928c15.09787,3.20032 30.31692,6.71436 45.73156,10.56616c-5.79806,-0.54773 -11.79175,-1.43328 -18.32821,-2.39904c1.19793,0.93835 2.0968,1.64245 2.72537,2.61151c-20.25223,-5.4115 -40.59326,-8.94928 -61.34973,-10.29431c0.00009,-0.70697 -0.00336,-1.1109 -0.00681,-1.51477m55.05267,8.7951c0.4,-0.09253 0.80002,-0.18506 1.19999,-0.27759c-0.0875,-0.11889 -0.18994,-0.34796 -0.25998,-0.33856c-0.40638,0.05518 -0.80515,0.16638 -0.94001,0.61615m-16.84997,-4.55176c-0.1572,0.11359 -0.31442,0.22718 -0.47162,0.34076c0.2193,-0.02295 0.4386,-0.04583 0.47162,-0.34076z" fill="#FD7407"/>
  <path id="svg_12" d="m476.40686,231.76388c1.56467,-0.85546 3.46576,-2.22822 5.50897,-2.4895c23.49585,-3.00457 47.10419,-3.82966 70.76923,-3.21667c0.70581,0.01828 1.39545,0.65665 2.20508,1.3856c-14.95978,0.44387 -30.05176,0.0584 -45.09751,0.72167c-11.02584,0.48608 -21.99105,2.34877 -33.38577,3.5989z" fill="#FE730D"/>
  <path id="svg_13" d="m227.78154,260.96234c-0.0359,-2.0177 -0.56755,-4.67184 0.38544,-6.58733c5.43962,-10.93369 11.18767,-21.71575 16.96995,-32.4746c0.63468,-1.18093 2.15528,-1.8857 3.62313,-2.81954c-5.80265,11.60046 -11.99953,23.19029 -18.09153,34.83499c-1.1175,2.13608 -1.80896,4.49512 -2.88699,7.04648z" fill="#11110F"/>
  <path id="svg_14" d="m206.2155,336.67572c-0.48474,-1.94208 -1.41136,-4.35162 -0.96231,-6.46954c2.04164,-9.62897 4.43042,-19.1857 6.78815,-28.7453c0.59913,-2.4292 1.54241,-4.77356 2.84989,-7.31324c0.52231,-0.15637 0.9685,-0.1466 0.9685,-0.1466c-3.15088,14.11383 -6.30176,28.22769 -9.64423,42.67468z" fill="#0F0F0D"/>
  <path id="svg_15" d="m823.38293,411.42706c1.18885,4.22302 3.26239,8.80292 3.45758,13.46152c0.78626,18.75839 0.03144,37.45722 -4.81817,55.75781c-0.15918,0.60086 -0.75189,1.08686 -1.41528,1.51441c1.61267,-14.82273 4.17346,-29.48993 5.12561,-44.26084c0.55481,-8.60751 -1.46625,-17.38104 -2.34974,-26.4729z" fill="#FD6F06"/>
  <path id="svg_16" d="m202.9527,406.53033c-0.97595,-0.57653 -2.68799,-1.62521 -2.67818,-2.65762c0.09857,-10.39603 0.4642,-20.78986 0.82582,-31.18188c0.01808,-0.51923 0.68945,-1.01572 1.42233,-1.60422c0.40816,11.60541 0.45064,23.29227 0.43003,35.44372z" fill="#0F0F0D"/>
  <path id="svg_17" d="m631.01221,658.00488c-1.17859,-0.46508 -2.35718,-0.93017 -3.76642,-1.63171c13.82031,-4.64728 27.87134,-9.05817 42.30054,-13.51148c-3.75861,1.99622 -7.82367,4.2016 -12.05451,6.02192c-3.53918,1.52282 -7.27197,2.59545 -11.45557,3.99078c-0.53643,0.12329 -1.02404,0.12317 -1.39575,0.12903c-2.13208,0.66534 -3.89239,1.32489 -6.02899,1.98718c-2.12219,0.68231 -3.86804,1.36176 -5.78448,2.27893c-0.71863,0.40363 -1.26673,0.56946 -1.81482,0.73535z" fill="#FD760B"/>
  <path id="svg_18" d="m624.4906,656.77014c-3.54816,1.21887 -7.44104,2.85846 -11.4989,3.63056c-5.72846,1.09002 -11.57898,1.53845 -17.67407,2.00518c9.38702,-2.03802 19.07086,-3.82013 29.17297,-5.63574z" fill="#FD760B"/>
  <path id="svg_19" d="m215.98312,293.64551c-0.12339,0.35553 -0.56958,0.34576 -0.79296,0.336c-0.3695,-5.96201 1.26316,-11.32471 5.39889,-16.00184c-1.27197,5.08112 -2.87724,10.19572 -4.60593,15.66584z" fill="#11110F"/>
  <path id="svg_20" d="m203.0482,367.60175c-2.96339,-2.45786 -2.87008,-8.50306 0.4637,-12.5221c0.12303,3.99286 -0.12002,8.05978 -0.4637,12.5221z" fill="#0F0F0D"/>
  <path id="svg_21" d="m221.92441,275.49481c-0.54469,-0.0444 -1.20975,-0.19897 -1.31685,-0.53265c-0.7384,-2.30036 3.70154,-12.20264 6.44899,-13.59894c-1.40666,4.71228 -3.20049,9.32541 -5.13214,14.13159z" fill="#11110F"/>
  <path id="svg_22" d="m238.07564,538.43543c-0.76374,0.19311 -2.10266,0.26849 -2.29494,-0.16486c-2.01582,-4.54321 -3.84807,-9.16785 -5.7025,-14.17206c2.6706,4.39301 5.31258,9.18805 7.99744,14.33692z" fill="#0F0F0D"/>
  <path id="svg_23" d="m249.38185,218.95459c-0.34466,-5.86119 3.19649,-9.84033 7.75465,-13.18957c-2.2853,4.48728 -4.86907,8.75532 -7.75465,13.18957z" fill="#11110F"/>
  <path id="svg_24" d="m203.94247,418.56763c-4.75094,-1.73966 -3.24372,-5.06668 -1.34053,-8.47901c0.71923,2.62955 1.06189,5.34079 1.34053,8.47901z" fill="#0F0F0D"/>
  <path id="svg_25" d="m260.78961,201.17294c-0.73596,-4.69996 1.57471,-7.91043 6.323,-9.69912c-1.80032,3.24693 -3.95392,6.34997 -6.323,9.69912z" fill="#11110F"/>
  <path id="svg_26" d="m274.93845,181.63565c-1.00281,-4.58255 2.15847,-6.61006 6.17538,-8.11966c-1.75107,2.73021 -3.84982,5.30344 -6.17538,8.11966z" fill="#11110F"/>
  <path id="svg_27" d="m471.59549,664.07861c-4.737,-0.09222 -9.86557,-0.25567 -15.28903,-0.67529c4.76925,0.03058 9.83334,0.31726 15.28903,0.67529z" fill="#FD7407"/>
  <path id="svg_28" d="m281.91528,173.22522c-1.44943,-4.52765 1.87714,-5.89853 5.637,-7.23435c-1.55732,2.33137 -3.47989,4.67808 -5.637,7.23435z" fill="#11110F"/>
  <path id="svg_29" d="m685.55713,635.82874c-3.05621,1.65893 -6.47882,3.38836 -10.31824,5.07202c3.03937,-1.69776 6.49561,-3.34967 10.31824,-5.07202z" fill="#FD760B"/>
  <path id="svg_30" d="m204.94002,427.60944c-4.83043,-0.42432 -3.28632,-2.93461 -1.27013,-5.54767c0.69145,1.67053 1.0121,3.4165 1.27013,5.54767z" fill="#0F0F0D"/>
  <path id="svg_31" d="m204.15602,351.65546c-3.60036,-1.70362 -2.70599,-3.65067 0.35417,-5.60224c0.17237,1.71994 -0.01681,3.48752 -0.35417,5.60224z" fill="#0F0F0D"/>
  <path id="svg_32" d="m382.97867,646.36426c-3.6788,-0.86884 -7.60806,-1.98993 -11.54462,-3.4917c3.75983,0.82605 7.52701,2.03277 11.54462,3.4917z" fill="#FD7407"/>
  <path id="svg_33" d="m448.87689,661.60913c-3.63879,-0.10815 -7.48694,-0.55536 -11.60165,-1.27344c3.61972,0.13086 7.50601,0.53266 11.60165,1.27344z" fill="#FD7407"/>
  <path id="svg_34" d="m205.94748,435.61243c-2.48972,-1.08161 -5.3054,-2.44361 -1.30882,-5.56861c0.66716,1.70121 1.01754,3.44364 1.30882,5.56861z" fill="#0F0F0D"/>
  <path id="svg_35" d="m205.13029,343.66205c-3.80932,-1.45587 -2.3508,-3.03235 0.39617,-4.61356c0.15405,1.39917 -0.04321,2.84146 -0.39617,4.61356z" fill="#0F0F0D"/>
  <path id="svg_36" d="m353.978,635.56354c-2.73578,-0.86389 -5.67408,-2.01923 -8.74375,-3.50855c2.75949,0.84973 5.65039,2.03339 8.74375,3.50855z" fill="#FD7407"/>
  <path id="svg_37" d="m368.9704,641.54968c-2.38361,-0.51788 -4.98734,-1.32275 -7.74286,-2.4602c2.40634,0.50274 4.96457,1.33795 7.74286,2.4602z" fill="#FD7407"/>
  <path id="svg_38" d="m360.98334,638.55481c-2.09015,-0.49848 -4.38385,-1.28644 -6.78458,-2.42981c2.12232,0.47644 4.35165,1.30841 6.78458,2.42981z" fill="#FD7407"/>
  <path id="svg_39" d="m267.83954,191.21542c0.4798,-1.15213 1.16897,-2.51713 2.24457,-3.74063c-0.42084,1.27027 -1.22803,2.39901 -2.24457,3.74063z" fill="#11110F"/>
  <path id="svg_40" d="m258.11203,205.1344c-1.50439,-1.96422 -1.20544,-3.43697 1.96353,-3.70583c-0.32648,1.24788 -1.04794,2.37159 -1.96353,3.70583z" fill="#11110F"/>
  <path id="svg_41" d="m335.02213,626.53784c-1.74595,-0.56946 -3.6767,-1.42694 -5.61381,-2.65307c1.80543,0.5426 3.61722,1.45385 5.61381,2.65307z" fill="#FD7407"/>
  <path id="svg_42" d="m674.5531,640.82874c-1.07495,0.67358 -2.50024,1.40032 -4.31421,2.09118c1.06213,-0.70337 2.51294,-1.37073 4.31421,-2.09118z" fill="#FD760B"/>
  <path id="svg_43" d="m454.91715,662.61316c-1.65851,0.19598 -3.5322,0.04645 -5.65619,-0.41126c1.64678,-0.18341 3.54391,-0.05877 5.65619,0.41126z" fill="#FD7407"/>
  <path id="svg_44" d="m324.08942,620.46655c-0.86716,-0.10998 -1.91059,-0.48169 -2.98426,-1.2268c0.91584,0.07269 1.86194,0.51886 2.98426,1.2268z" fill="#FD7407"/>
  <path id="svg_45" d="m377.3165,96.03397c0.55398,-0.6123 1.44287,-1.29274 2.7261,-1.94709c-0.53415,0.64371 -1.46267,1.26133 -2.7261,1.94709z" fill="#000000"/>
  <path id="svg_46" d="m389.96588,648.55994c-1.01688,0.07916 -2.25738,-0.1167 -3.55603,-0.70374c1.07205,-0.11792 2.20221,0.1554 3.55603,0.70374z" fill="#FD7407"/>
  <path id="svg_47" d="m270.83414,187.22498c0.06436,-0.56221 0.33093,-1.32709 0.9646,-2.12841c-0.00943,0.61762 -0.38593,1.27169 -0.9646,2.12841z" fill="#11110F"/>
  <path id="svg_48" d="m391.29504,88.96993c0.26487,-0.46716 0.82215,-0.94466 1.54444,-1.19137c-0.30735,0.54754 -0.7797,0.86427 -1.54444,1.19137z" fill="#000000"/>
  <path id="svg_49" d="m398.29993,85.93243c0.26233,-0.47647 0.81417,-0.93731 1.53003,-1.17175c-0.30417,0.54674 -0.77237,0.86706 -1.53003,1.17175z" fill="#000000"/>
  <path id="svg_50" d="m385.99548,647.32355c-0.70593,0.1228 -1.63186,0.02014 -2.61673,-0.4621c0.75965,-0.17419 1.57819,0.03125 2.61673,0.4621z" fill="#FD7407"/>
  <path id="svg_51" d="m341.02035,629.5929c-0.74243,0.03625 -1.63619,-0.20136 -2.46124,-0.81067c0.8158,-0.06885 1.56287,0.23401 2.46124,0.81067z" fill="#FD7407"/>
  <path id="svg_52" d="m343.03748,630.56348c-0.45127,0.11908 -1.06794,-0.02954 -1.82837,-0.47779c0.45846,-0.12976 1.06066,0.0401 1.82837,0.47779z" fill="#FD7407"/>
  <path id="svg_53" d="m371.01379,642.26715c-0.40966,0.16492 -1.02774,0.13129 -1.78759,-0.21332c0.43188,-0.20233 1.00549,-0.09375 1.78759,0.21332z" fill="#FD7407"/>
  <path id="svg_54" d="m345.05655,631.5376c-0.45935,0.12195 -1.08142,-0.02594 -1.83456,-0.48438c0.46987,-0.13549 1.07086,0.03955 1.83456,0.48438z" fill="#FD7407"/>
  <path id="svg_55" d="m327.95666,622.66229c-0.43917,0.08466 -1.03091,-0.09991 -1.755,-0.57892c0.44592,-0.09314 1.0242,0.10828 1.755,0.57892z" fill="#FD7407"/>
  <path id="svg_56" d="m320.97559,618.63708c-0.4571,0.04029 -1.06525,-0.20196 -1.77906,-0.77416c0.47223,-0.05616 1.05011,0.21777 1.77906,0.77416z" fill="#FD7407"/>
  <path id="svg_57" d="m326.02927,621.59644c-0.46079,0.08282 -1.06678,-0.10865 -1.76691,-0.62439c0.47778,-0.09943 1.04974,0.1253 1.76691,0.62439z" fill="#FD7407"/>
  <path id="svg_58" d="m337.02869,627.58179c-0.45627,0.10559 -1.06916,-0.06025 -1.80658,-0.53589c0.46692,-0.11841 1.05847,0.07306 1.80658,0.53589z" fill="#FD7407"/>
  <path id="svg_59" d="m403.34875,83.89919c0.00711,-0.23581 0.34147,-0.46074 0.98139,-0.75631c-0.01431,0.20864 -0.3342,0.48791 -0.98139,0.75631z" fill="#000000"/>
  <path id="svg_60" d="m329.18884,623.33148c-0.20071,0.15778 -0.54742,0.10315 -1.02261,-0.2016c0.20654,-0.17035 0.5416,-0.09057 1.02261,0.2016z" fill="#FD7407"/>
  <path id="svg_61" d="m625.70575,656.20837c0.08691,0.30964 -0.15033,0.50129 -0.69989,0.61365c-0.14221,-0.34515 0.08716,-0.56256 0.69989,-0.61365z" fill="#FD760B"/>
  <path id="svg_62" d="m387.32025,90.92354c-0.0054,-0.22558 0.2941,-0.45484 0.87775,-0.75231c-0.00153,0.20406 -0.28717,0.47635 -0.87775,0.75231z" fill="#000000"/>
  <path id="svg_63" d="m385.31372,91.8956c-0.00769,-0.22337 0.27618,-0.43808 0.82559,-0.72227c-0.001,0.19731 -0.26755,0.46411 -0.82559,0.72227z" fill="#000000"/>
  <path id="svg_64" d="m381.30273,93.93103c-0.02066,-0.22572 0.24796,-0.45669 0.78022,-0.76184c0.01208,0.20274 -0.23941,0.47966 -0.78022,0.76184z" fill="#000000"/>
  <path id="svg_65" d="m338.16095,628.17358c-0.19135,0.16816 -0.52728,0.15119 -0.96518,-0.13104c0.21741,-0.24652 0.5249,-0.17615 0.96518,0.13104z" fill="#FD7407"/>
  <path id="svg_66" d="m220.66603,276.04193c-0.24191,0.18299 -0.4946,0.29746 -0.74727,0.41193c0.08661,-0.10419 0.17322,-0.20841 0.49323,-0.4657c0.23338,-0.15308 0.24325,-0.01471 0.25404,0.05377z" fill="#11110F"/>
  <path id="svg_67" d="m358.98852,649.83838c20.76008,1.04181 41.10111,4.57959 61.47498,10.28564c0.39194,0.02973 0.42929,0.00653 0.63208,0.28357c2.06143,0.87042 3.92008,1.46387 5.77872,2.05732c13.71573,5.61175 27.1325,11.74096 37.38617,22.95703c16.07785,17.58691 14.24682,37.41998 -4.59665,52.02087c-12.72116,9.85712 -27.22074,15.492 -42.83939,18.62134c-1.13943,0.22827 -2.25952,0.55322 -4.15115,0.89874c-1.91672,0.30628 -3.07092,0.547 -4.35877,0.73914c-0.13363,-0.04859 -0.32064,0.16565 -0.32064,0.16565c-0.44983,0.00799 -0.89969,0.01593 -2.11048,0.07055c-2.64148,0.62702 -4.52203,1.20728 -6.41781,1.82453c-0.01529,0.03692 -0.08774,0.0708 -0.08774,0.0708c0.05939,-0.16217 0.1188,-0.32441 -0.42478,-0.66938c-4.05188,0.19068 -7.50079,0.56403 -10.94967,0.93738c-0.44815,-0.04193 -0.89627,-0.08392 -2.1405,-0.11773c-11.81714,0.04821 -22.8382,0.08831 -33.85926,0.12835c-1.06586,-0.1228 -2.13171,-0.2456 -3.92947,-0.49902c-2.51148,-0.25415 -4.29099,-0.37769 -6.07053,-0.50116c-0.74936,-0.09534 -1.49872,-0.19074 -2.97201,-0.42834c-4.15848,-0.61176 -7.59299,-1.08124 -11.02753,-1.55073c-0.44412,-0.07171 -0.88821,-0.14349 -2.00693,-0.35723c-3.4476,-0.64905 -6.22055,-1.15613 -8.99353,-1.66321c-0.42276,-0.11194 -0.84552,-0.22388 -1.86233,-0.58826c-2.97754,-0.72986 -5.36106,-1.20727 -7.9032,-1.92413c-0.5188,-0.30487 -0.879,-0.37036 -1.55261,-0.53723c-0.75071,-0.1344 -1.18802,-0.16755 -1.62534,-0.20069c-0.79352,-0.31616 -1.58704,-0.63238 -2.88202,-1.20117c-1.05942,-0.35864 -1.61743,-0.4646 -2.47238,-0.66614c-0.71255,-0.08178 -1.12814,-0.06799 -1.69617,-0.37463c-2.104,-1.06299 -4.05554,-1.8056 -6.17474,-2.65527c-0.16763,-0.10694 -0.564,-0.07471 -0.77683,-0.36634c-6.1394,-3.09656 -12.06594,-5.90155 -17.99249,-8.70654c0,0 -0.03143,0.09204 -0.16434,-0.23407c-8.58294,-5.25275 -16.19239,-11.16644 -22.12265,-19.05206c0,0 -0.11155,-0.22211 -0.35586,-0.53638c-0.70911,-1.09161 -1.17392,-1.86896 -1.63873,-2.64624c-0.21508,-0.07471 -0.43016,-0.14935 -0.84778,-0.02618c-0.20255,0.19775 -0.17642,0.04266 -0.17642,0.04266c-0.13144,-0.87091 -0.26287,-1.74182 -0.63471,-3.4209c-3.90636,-9.76404 -2.8344,-18.38129 1.61424,-26.7572c0.09154,-0.14289 0.18306,-0.28583 0.53496,-0.82678c1.43407,-2.0708 2.60776,-3.74341 3.78143,-5.41608c2.91104,-2.69586 5.82209,-5.39172 9.18363,-8.45282c1.31595,-1.0639 2.18139,-1.76245 3.04684,-2.46106c0.17645,-0.02472 0.35297,-0.0495 1.05725,-0.38489c1.84851,-1.16864 3.16922,-2.02673 4.48996,-2.88476c0,0 0.24814,-0.00794 0.69242,-0.22998c9.79516,-3.66004 19.14599,-7.09797 28.49685,-10.53589c0.44382,-0.00885 0.88767,-0.01764 2.06272,-0.07117c9.52441,-1.39447 18.31759,-2.7442 27.11078,-4.09393c4.07214,-0.16126 8.14428,-0.32251 13.04455,-0.57135c6.46805,0.10998 12.10794,0.30768 17.74786,0.50537z" fill="#FCFBF8"/>
  <path id="svg_68" d="m417.41571,760.94141c20.11948,10.67114 40.86878,19.92444 62.68408,27.62378c-0.3519,0.55725 -0.95575,0.83203 -1.55533,1.11584c-6.55462,3.10352 -6.50152,3.06177 -11.36422,-3.0517c-0.65778,-0.82696 -2.121,-1.15033 -3.27805,-1.41729c-3.45026,-0.79615 -8.5592,3.6452 -10.08075,-3.85901c-0.30243,-1.49152 -5.67917,-1.98609 -8.73605,-2.87097c-1.15216,-0.3335 -2.97052,-0.05683 -3.44846,-0.76148c-3.98849,-5.88067 -10.29901,-7.50964 -16.38214,-9.94134c-3.0235,-1.20868 -7.93558,-1.16541 -7.83908,-6.83783z" fill="#171615"/>
  <path id="svg_69" d="m652.98029,806.83185c11.07702,-2.23163 22.15399,-4.46332 33.61773,-6.68634c-3.94879,1.57068 -8.17285,3.92724 -12.63952,4.55365c-17.14765,2.40497 -34.32685,4.94775 -51.58368,6.10217c-14.98127,1.0022 -30.08832,0.41925 -45.12982,0.0871c-6.23005,-0.13751 -12.43415,-1.44672 -18.49476,-2.57929c11.5199,0.26685 22.88453,0.8899 34.24915,1.51288c0.17218,0.039 0.3443,0.07788 1.23694,0.13159c20.06164,-1.03064 39.40283,-2.07623 58.74396,-3.12176z" fill="#0D0A1B"/>
  <path id="svg_70" d="m481.15854,789.36719c14.92071,3.95971 29.99301,8.24475 45.83224,12.62512c3.8523,0.79077 6.93757,1.48621 10.11469,2.54626c2.05902,0.70942 4.02618,1.05414 5.95203,1.39991c-0.04145,0.00116 0.00274,-0.06891 0.08483,0.1726c0.33704,0.45697 0.59205,0.67243 1.09974,0.88898c0.42102,0.00311 0.58947,0.00519 0.75793,0.00726c-4.99994,3.88349 -11.30847,3.54126 -15.86005,-0.53741c-1.52929,-1.37042 -3.54712,-2.4223 -5.52307,-3.0249c-5.81824,-1.77442 -11.68676,-3.43384 -17.62225,-4.74671c-2.15683,-0.47711 -4.55823,0.15143 -6.01379,0.23029c-4.62793,-2.17511 -8.79285,-4.0849 -12.91175,-6.0893c-1.96481,-0.95617 -3.8421,-2.09216 -5.91055,-3.4721z" fill="#171615"/>
  <path id="svg_71" d="m537.01367,804.17401c-3.08532,-0.69549 -6.17059,-1.39093 -9.63183,-2.20233c4.27258,0.27826 8.92669,0.61523 13.56848,1.0766c16.41253,1.63177 32.8222,3.29394 49.22735,4.9975c0.89173,0.09259 1.73352,0.66687 2.71015,1.3966c-11.25305,-0.24334 -22.61768,-0.86639 -34.42859,-1.38586c-0.44629,0.10357 -0.89868,-0.02667 -1.36054,-0.3982c-2.66961,-0.50341 -4.87744,-0.63531 -7.0852,-0.76715c0,0 0.0033,0.07599 -0.18146,-0.27355c-2.06305,-0.38972 -3.94128,-0.42994 -6.05578,-0.54584c-0.23627,-0.07562 -0.71601,-0.20221 -0.71601,-0.20221c0,0 -0.04419,0.07007 -0.18451,-0.2508c-2.0476,-0.69543 -3.95483,-1.07006 -5.86206,-1.44476z" fill="#F09702"/>
  <path id="svg_72" d="m352.01898,760.52002c11.00571,-0.44788 22.02677,-0.48798 33.51251,-0.46417c-0.69049,1.02099 -1.82531,2.77813 -3.00412,2.8081c-9.07531,0.23096 -18.1604,0.19666 -27.23876,0.03589c-1.09604,-0.01935 -2.17005,-1.2843 -3.26963,-2.37982z" fill="#11110F"/>
  <path id="svg_73" d="m328.04498,649.59924c-8.64206,1.65485 -17.43524,3.00458 -26.63607,4.31543c-0.49421,-5.07709 4.33639,-1.43219 6.18887,-3.69452c0.94269,-1.15118 3.66217,-0.86114 5.58328,-1.19488c6.23773,-1.0838 6.3085,-1.18079 4.8331,-7.44629c3.28738,2.31653 6.58353,5.01587 10.03082,8.02026z" fill="#161413"/>
  <path id="svg_74" d="m247.34137,685.20605c-4.05074,8.43158 -5.1227,17.04883 -1.44577,26.39783c-2.95488,0.49414 -4.98514,0.36591 -4.19437,-3.91675c0.9872,-5.34643 0.56513,-10.94531 1.43239,-16.32544c0.35745,-2.21752 2.48654,-4.14941 4.20775,-6.15564z" fill="#11110F"/>
  <path id="svg_75" d="m298.97296,653.73737c-9.30121,3.77001 -18.65204,7.20794 -28.33453,10.81585c0.36755,-1.12915 0.77221,-3.20929 1.81317,-3.60168c7.28354,-2.74591 14.67624,-5.21283 22.09241,-7.58661c1.32022,-0.42249 2.91256,0.00525 4.42895,0.37244z" fill="#161413"/>
  <path id="svg_76" d="m249.57269,718.97626c6.1361,7.51532 13.74555,13.42901 22.36737,18.65258c-7.17416,-0.20611 -11.75216,-5.46344 -16.52092,-9.98754c-2.39425,-2.27155 -7.52652,-3.05658 -5.84645,-8.66504z" fill="#11110F"/>
  <path id="svg_77" d="m272.07913,738.25543c5.91294,2.44165 11.83948,5.24664 17.66089,8.37384c-0.31717,0.34241 -0.5292,0.36267 -0.74124,0.38294c-2.03763,-0.36438 -4.34931,-0.23865 -6.05698,-1.1933c-3.77752,-2.11176 -7.25134,-4.76672 -10.86267,-7.56348z" fill="#11110F"/>
  <path id="svg_78" d="m289.00571,747.39185c0.20511,-0.39991 0.41714,-0.42017 0.94714,-0.47095c0.31799,-0.03064 0.71436,-0.06287 0.94608,0.40185c2.24215,1.1825 4.25262,1.90021 6.26309,2.61792c0.41559,-0.01379 0.83118,-0.02758 1.5397,0.41675c0.2984,1.18305 0.30383,1.90796 0.30927,2.63281c-4.27753,0.07044 -8.30005,-0.34771 -10.00528,-5.59838z" fill="#171615"/>
  <path id="svg_79" d="m328.01141,757.49695c3.42722,0.10547 6.86173,0.57495 10.6445,1.23376c0.2721,0.50879 0.30481,0.97919 0.10315,1.12458c-2.33175,1.68115 -8.76501,0.46338 -10.74765,-2.35834z" fill="#11110F"/>
  <path id="svg_80" d="m307.39673,752.8396c2.38351,0.47736 4.76703,0.95477 7.41632,1.6803c-0.93344,0.65527 -2.18399,1.50421 -3.32056,1.37213c-2.005,-0.23291 -3.94046,-1.06421 -6.08929,-1.98865c0.01294,-0.62109 0.27362,-0.81152 0.94891,-0.93158c0.58231,-0.05499 0.81345,-0.09356 1.04462,-0.1322z" fill="#11110F"/>
  <path id="svg_81" d="m689.09839,800.08191c3.5827,-1.48181 7.35736,-2.68817 11.50806,-3.90942c-2.51441,4.18841 -7.20691,3.37481 -11.50806,3.90942z" fill="#0D0A1B"/>
  <path id="svg_82" d="m317.0152,755.5072c2.76141,0.11237 5.53436,0.61945 8.64596,1.31275c0.33985,0.35485 0.34104,0.52343 0.00357,0.94006c-0.77932,0.24994 -1.21997,0.25165 -1.66064,0.25336c-2.32578,-0.70386 -4.65155,-1.40772 -6.98889,-2.50617z" fill="#11110F"/>
  <path id="svg_83" d="m388.00104,760.33008c3.45123,-0.60187 6.90014,-0.97522 10.72577,-1.29218c-1.36106,0.69422 -3.09882,1.33197 -5.69922,1.96808c-2.24634,0.00195 -3.62998,0.00562 -5.01361,0.00928c0,0 -0.01532,-0.45667 -0.01294,-0.68518z" fill="#11110F"/>
  <path id="svg_84" d="m342.01434,759.49927c1.76883,-0.2638 3.54834,-0.14026 5.66065,0.16919c-1.64386,3.47876 -3.63773,3.55218 -5.66065,-0.16919z" fill="#11110F"/>
  <path id="svg_85" d="m251.68036,679.01514c-0.79837,1.67639 -1.97206,3.349 -3.40149,5.16528c-1.84758,-2.78107 -1.35118,-3.5846 3.40149,-5.16528z" fill="#11110F"/>
  <path id="svg_86" d="m408.44815,757.75061c1.15421,-0.24072 2.30841,-0.48144 3.82144,-0.67694c1.76328,1.0166 3.1677,1.98804 4.77893,3.18695c-1.32861,-0.17151 -2.86407,-0.57043 -4.72375,-1.11475c-0.32422,-0.14526 -0.32599,-0.14587 -0.58905,-0.43029c-1.27127,-0.51136 -2.27942,-0.73816 -3.28757,-0.96497z" fill="#171615"/>
  <path id="svg_87" d="m399.48084,759.72583c1.88052,-0.58032 3.76107,-1.16058 6.07864,-1.68384c-0.02179,0.66828 -0.48062,1.27942 -1.81748,1.91846c-2.0057,-0.05963 -3.13345,-0.14716 -4.26116,-0.23462z" fill="#11110F"/>
  <path id="svg_88" d="m264.17203,667.72815c-0.75135,1.07544 -1.61679,1.77399 -2.75748,2.56378c0.00873,-1.58258 -1.39166,-4.87775 2.75748,-2.56378z" fill="#161413"/>
  <path id="svg_89" d="m269.42578,664.60199c-0.91318,1.09137 -2.23389,1.94946 -3.87173,2.95355c-0.57587,-2.68854 0.66296,-3.82397 3.87173,-2.95355z" fill="#161413"/>
  <path id="svg_90" d="m550.26709,807.20215c1.95416,-0.17914 4.16199,-0.04724 6.5982,0.42578c-1.96258,0.18909 -4.15356,0.03711 -6.5982,-0.42578z" fill="#0D0A1B"/>
  <path id="svg_91" d="m544.01245,806.14746c1.8783,0.04022 3.75653,0.08044 5.85578,0.4585c-1.19294,0.35815 -2.60688,0.37835 -4.44452,0.40002c-0.59217,-0.00073 -0.76062,-0.00281 -1.17939,-0.21887c-0.25036,-0.21405 -0.23187,-0.63959 -0.23187,-0.63965z" fill="#0D0A1B"/>
  <path id="svg_92" d="m247.54358,715.79712c0.70517,0.4035 1.16998,1.18085 1.78072,2.19653c-0.57641,-0.44867 -1.29876,-1.13574 -1.78072,-2.19653z" fill="#11110F"/>
  <path id="svg_93" d="m412.00372,759.005c-1.23913,0.19165 -2.4815,0.37879 -3.46399,0.2826c1.32627,-0.28479 2.39267,-0.2862 3.45905,-0.2876c0,0 0.00177,0.00061 0.00494,0.005z" fill="#171615"/>
  <path id="svg_94" d="m299.33704,752.94165c-0.33149,-0.67627 -0.33692,-1.40118 -0.33832,-2.48865c0.56198,-0.25659 1.11999,-0.15063 1.84237,0.19831c-0.28311,0.90924 -0.73059,1.5755 -1.50405,2.29034z" fill="#11110F"/>
  <path id="svg_95" d="m388.24509,761.27918c1.15252,-0.26758 2.53616,-0.27125 4.33505,-0.27149c-1.09116,0.18079 -2.59757,0.35809 -4.33505,0.27149z" fill="#171615"/>
  <path id="svg_96" d="m399.46558,759.76276c1.14297,0.05053 2.27072,0.13806 3.96356,0.23828c-0.77362,0.11303 -2.11237,0.21331 -3.75119,0.07306c-0.30011,-0.24054 -0.22766,-0.27442 -0.21237,-0.31134z" fill="#171615"/>
  <path id="svg_97" d="m411.73572,758.71558c-0.80332,0.28582 -1.86972,0.28723 -3.33606,0.2915c-0.40235,-0.18756 -0.4047,-0.37793 -0.4064,-0.85382c0.00061,-0.28558 0.18762,-0.49982 0.32125,-0.45123c1.14179,0.27539 2.14994,0.50219 3.42121,1.01355z" fill="#11110F"/>
  <path id="svg_98" d="m306.00098,752.98828c-0.32416,0.10358 -0.58484,0.29401 -0.89087,0.79157c-0.48581,-0.32013 -0.86274,-0.86036 -1.14481,-1.65912c0.53217,-0.22541 0.96948,-0.19226 1.72077,0.14819c0.31396,0.30731 0.31491,0.71936 0.31491,0.71936z" fill="#171615"/>
  <path id="svg_99" d="m324.15057,758.23334c0.29419,-0.22168 0.73484,-0.22339 1.50568,-0.22064c-0.23294,0.1499 -0.79608,0.29528 -1.50568,0.22064z" fill="#171615"/>
  <path id="svg_100" d="m246.53104,715.31885c0.2287,0.12097 0.20257,0.27606 0.22131,0.36609c-0.28517,-0.02674 -0.58908,-0.1435 -0.89297,-0.26032c0.14765,-0.07556 0.29531,-0.15118 0.67166,-0.10577z" fill="#11110F"/>
  <path id="svg_101" d="m658.00659,652.88745c19.93415,0.04602 39.93012,-0.88275 59.78711,0.37842c26.40149,1.67676 52.37531,6.53296 75.3714,20.76758c6.51025,4.02984 12.73297,9.29028 17.46661,15.26965c11.00306,13.89862 9.64954,30.80048 -2.41327,43.93207c-12.45324,13.55658 -28.76916,19.68689 -46.11584,23.72101c-23.19965,5.39538 -46.8028,6.66095 -70.40289,4.82617c-30.85523,-2.39887 -60.54981,-9.48193 -86.72358,-27.10071c-4.77484,-3.21411 -9.28784,-7.17493 -12.96722,-11.58704c-8.61389,-10.32916 -10.53931,-25.12542 -0.75622,-38.62158c0.51983,-0.77551 0.69787,-1.09894 0.87597,-1.42242c-0.00006,0 -0.0852,-0.01221 0.18054,-0.06928c0.57782,-0.47619 0.88996,-0.89532 1.20209,-1.31439c0,0 0.07752,-0.13019 0.29645,-0.28589c0.43384,-0.32611 0.5755,-0.54419 0.64386,-0.80993c0,0 0.0318,-0.09687 0.26044,-0.19013c0.45507,-0.24768 0.61645,-0.45312 0.71295,-0.70965c0,0 0.14135,-0.10914 0.36297,-0.25934c0.4256,-0.30023 0.56672,-0.49549 0.64514,-0.73609c0,0 0.13911,-0.11108 0.34937,-0.24762c0.40076,-0.2669 0.53516,-0.44067 0.6134,-0.65783c0,0 0.20661,-0.09815 0.49634,-0.31757c0.61157,-0.59393 0.93341,-0.9685 1.25519,-1.34308c0,0 -0.08582,-0.03979 0.18487,-0.078c0.4704,-0.33167 0.67017,-0.62506 0.87,-0.91846c0,0 -0.11047,-0.02026 0.16144,-0.05053c0.47601,-0.32343 0.68011,-0.61658 0.88422,-0.9098c0,0 -0.13099,-0.01904 0.11633,0.00153c0.57629,-0.04016 0.82348,-0.21588 0.98883,-0.50677c0,0 0.15039,-0.05188 0.45392,-0.21198c0.66388,-0.53174 1.02429,-0.90338 1.3847,-1.27496c0,0 -0.09363,-0.03595 0.14642,-0.03083c0.57386,-0.03503 0.82599,-0.19988 0.99647,-0.48937c0,0 0.16375,-0.04181 0.50549,-0.21753c1.32611,-0.88965 2.31061,-1.60346 3.29504,-2.31733c0,0 -0.08563,-0.03485 0.28131,-0.05682c9.58869,-3.84814 18.81043,-7.67426 28.01679,-11.51233c-0.01532,-0.01202 0.00396,-0.03735 0.35022,-0.12451c1.96576,-0.56183 3.58538,-1.03662 5.46142,-1.47986c0.42096,-0.01965 0.58539,-0.07092 1.14301,-0.11413c4.80169,-0.97156 9.2102,-1.95112 13.61871,-2.93067z" fill="#FDFBF8"/>
  <path id="svg_102" d="m652.67462,806.57544c-19.03546,1.30194 -38.37665,2.34753 -58.17956,3.32202c0.2973,-0.34491 1.04827,-0.83075 1.81683,-0.86053c9.95319,-0.38508 19.91669,-0.5575 29.86102,-1.0932c6.76319,-0.36438 13.49567,-1.27155 20.25183,-1.81202c1.96381,-0.1571 3.96186,0.1131 6.24988,0.44373z" fill="#F89D01"/>
  <path id="svg_103" d="m637.44855,657.54858c-9.22168,3.82611 -18.44342,7.65223 -28.0224,11.54554c5.17914,-2.99958 10.69024,-6.11347 16.26922,-9.10077c1.43891,-0.77039 3.09088,-1.1427 4.9809,-1.8432c0.88403,-0.31116 1.43213,-0.47699 2.60168,-0.8899c1.80457,-0.06866 2.98755,0.10981 4.1706,0.28833z" fill="#FC7911"/>
  <path id="svg_104" d="m657.7359,652.63275c-4.13782,1.23425 -8.54633,2.21381 -13.31561,2.88495c-0.04322,-1.04565 0.27435,-1.7829 0.59192,-2.52014c0,0 0.48761,0.00012 0.7312,0.00006c2.82556,-0.13226 5.40771,-0.26105 7.98938,-0.39801c1.24457,-0.06604 2.48828,-0.14728 4.00311,0.03314z" fill="#FC7911"/>
  <path id="svg_105" d="m426.78711,662.07623c-1.77145,-0.20477 -3.6301,-0.79822 -5.70984,-1.67981c1.72684,0.23829 3.67478,0.76471 5.70984,1.67981z" fill="#FD7407"/>
  <path id="svg_106" d="m608.75659,669.07611c-0.60589,0.74353 -1.59039,1.45734 -2.84039,2.31024c0.64361,-0.68719 1.55279,-1.51355 2.84039,-2.31024z" fill="#FC7911"/>
  <path id="svg_107" d="m593.19446,681.57471c0.0047,0.51129 -0.30744,0.93042 -0.86719,1.44568c0.01837,-0.44861 0.28436,-0.99323 0.86719,-1.44568z" fill="#FC7911"/>
  <path id="svg_108" d="m603.85046,672.14575c-0.01916,0.38666 -0.37957,0.7583 -0.97064,1.258c0.05597,-0.33899 0.34265,-0.80603 0.97064,-1.258z" fill="#FC7911"/>
  <path id="svg_109" d="m598.81299,676.1123c0.01263,0.37208 -0.30921,0.74665 -0.8407,1.25879c0.02899,-0.3269 0.26764,-0.79156 0.8407,-1.25879z" fill="#FC7911"/>
  <path id="svg_110" d="m599.9361,675.18909c0.06634,0.21765 -0.13343,0.51104 -0.59516,0.88916c-0.06494,-0.21473 0.13202,-0.5141 0.59516,-0.88916z" fill="#FC7911"/>
  <path id="svg_111" d="m605.07336,671.53186c0.09076,0.39826 -0.16137,0.56311 -0.72528,0.64728c0.00122,-0.22272 0.23267,-0.48938 0.72528,-0.64728z" fill="#FC7911"/>
  <path id="svg_112" d="m602.08789,673.54071c0.09985,0.39795 -0.14734,0.57367 -0.70746,0.67798c-0.00659,-0.23261 0.21784,-0.50879 0.70746,-0.67798z" fill="#FC7911"/>
  <path id="svg_113" d="m600.97388,674.21942c0.06994,0.22681 -0.13416,0.51996 -0.6012,0.89881c-0.06622,-0.22034 0.13043,-0.52637 0.6012,-0.89881z" fill="#FC7911"/>
  <path id="svg_114" d="m597.14063,677.63855c0.177,0.34906 0.0426,0.52283 -0.2967,0.72528c-0.08538,-0.23767 -0.02197,-0.54736 0.2967,-0.72528z" fill="#FC7911"/>
  <path id="svg_115" d="m596.15832,678.57294c0.19636,0.34356 0.05524,0.53882 -0.30877,0.77435c-0.09534,-0.23541 -0.03064,-0.55633 0.30877,-0.77435z" fill="#FC7911"/>
  <path id="svg_116" d="m595.14526,679.57001c0.18323,0.35785 0.02185,0.56329 -0.38324,0.80072c-0.08459,-0.24536 0.00952,-0.57367 0.38324,-0.80072z" fill="#FC7911"/>
  <path id="svg_117" d="m594.16272,680.5011c0.22052,0.33575 0.07886,0.55383 -0.30634,0.8219c-0.10766,-0.23212 -0.0451,-0.56201 0.30634,-0.8219z" fill="#FC7911"/>
  <path id="svg_118" d="m591.87122,683.16968c0.07934,0.2044 -0.0987,0.52783 -0.53156,0.97229c-0.07849,-0.20368 0.09784,-0.52845 0.53156,-0.97229z" fill="#FC7911"/>
  <path id="svg_119" d="m358.99213,649.53522c-5.64353,0.10547 -11.28342,-0.09223 -17.36927,-0.36292c-2.40832,-0.16961 -4.37072,-0.26617 -6.3331,-0.36273c-0.00091,-0.26739 -0.00183,-0.53473 -0.00271,-0.80212c7.58807,0 15.17618,0 23.23126,0.00647c0.47046,0.41034 0.47391,0.81427 0.47382,1.5213z" fill="#FD5E00"/>
  <path id="svg_120" d="m413.90476,656.63672c0.26809,-0.271 0.66686,-0.3822 1.07324,-0.43738c0.07004,-0.0094 0.17248,0.21967 0.25998,0.33856c-0.39997,0.09253 -0.79999,0.18506 -1.33322,0.09882z" fill="#FD8601"/>
  <path id="svg_121" d="m397.28116,652.39978c-0.12616,0.15888 -0.34546,0.18176 -0.56476,0.20471c0.1572,-0.11358 0.31442,-0.22717 0.56476,-0.20471z" fill="#FC8603"/>
  <path id="svg_122" d="m644.64044,653.00342c0.0542,0.73138 -0.26337,1.46863 -0.61334,2.50629c-0.19684,0.35162 -0.36127,0.40289 -1.02759,0.17071c-1.66498,-0.41162 -2.82818,-0.53992 -3.99548,-0.67395c-0.00409,-0.0058 -0.01624,-0.01868 -0.01624,-0.01868c1.76032,-0.65948 3.52063,-1.31903 5.65265,-1.98437z" fill="#FD8601"/>
  <path id="svg_123" d="m637.43323,657.53656c-1.16773,-0.1665 -2.35071,-0.34497 -3.98474,-0.5141c1.29498,-0.6701 3.04083,-1.34955 5.16302,-2.03186c0.37628,-0.00281 0.38843,0.01007 0.21588,0.276c-0.57843,0.92145 -0.98431,1.57709 -1.3902,2.23267c0,0 -0.01928,0.02533 -0.00396,0.03729z" fill="#FD8601"/>
  <path id="svg_124" d="m297.00958,749.62024c-1.85803,-0.39728 -3.8685,-1.11499 -5.94302,-2.19049c1.88748,0.38489 3.83902,1.1275 5.94302,2.19049z" fill="#11110F"/>
  <path id="svg_125" d="m306.35211,752.9718c-0.35113,0.01648 -0.35208,-0.39557 -0.35266,-0.60156c0.35965,-0.1405 0.71985,-0.07501 1.23865,0.22992c-0.07254,0.27808 -0.30368,0.31665 -0.88599,0.37164z" fill="#171815"/>
  <path id="svg_126" d="m537.10547,804.5387c1.81543,0.01001 3.72266,0.38464 5.81164,1.07898c-1.78546,-0.02497 -3.75262,-0.36969 -5.81164,-1.07898z" fill="#0D0A1B"/>
  <path id="svg_127" d="m543.77625,806.07184c0.2362,0.07568 0.21771,0.50122 0.21545,0.71417c-0.25732,-0.0025 -0.51233,-0.21796 -0.84937,-0.67493c-0.08209,-0.24151 0.39765,-0.11492 0.63392,-0.03924z" fill="#171815"/>
  <path id="svg_128" d="m637.78345,657.41211c0.05963,-0.56842 0.46551,-1.22406 1.04803,-2.13977c1.33985,-0.13184 2.50305,-0.00354 3.91156,0.37653c-1.37421,0.72662 -2.99383,1.20141 -4.95959,1.76324z" fill="#FC7911"/>
 </g>
</svg>