<svg version="1.1" id="Layer_1" xmlns="http://www.w3.org/2000/svg" xmlns:xlink="http://www.w3.org/1999/xlink" x="0px" y="0px"
	 width="100%" viewBox="0 0 1024 1024" enable-background="new 0 0 1024 1024" xml:space="preserve">
<path fill="#000000" opacity="1.000000" stroke="none" 
	d="
M1.000000,392.000000 
	C1.000000,261.333344 1.000000,131.166702 1.000000,1.000035 
	C342.333282,1.000023 683.666565,1.000023 1025.000000,1.000012 
	C1025.000000,342.333252 1025.000000,683.666504 1025.000000,1024.999756 
	C683.666809,1024.999878 342.333618,1024.999878 1.000206,1025.000000 
	C1.000000,814.166687 1.000000,603.333313 1.000000,392.000000 
M936.972778,538.160034 
	C937.098938,537.172485 937.058350,536.127136 937.377380,535.206421 
	C940.222229,526.995850 939.288330,518.021301 943.566223,509.885406 
	C945.808289,505.621277 944.993164,499.558411 944.939880,494.314148 
	C944.776611,478.231628 944.362244,462.150848 943.929565,446.072510 
	C943.837219,442.642731 943.387085,439.206329 942.875916,435.806976 
	C940.963684,423.089874 939.462341,410.281921 936.847107,397.707672 
	C934.153625,384.757812 930.728760,371.922760 926.880920,359.263306 
	C924.297424,350.763733 920.705383,342.529388 917.055725,334.404999 
	C911.683472,322.446198 906.592957,310.263031 900.017151,298.970459 
	C893.501526,287.781189 885.293762,277.577240 877.921143,266.166718 
	C876.365906,262.701172 875.188293,258.995972 873.174072,255.821671 
	C869.374756,249.834198 865.278015,244.011642 860.972168,238.374725 
	C853.410645,228.475800 845.959900,218.453384 837.785950,209.072479 
	C830.172913,200.335312 821.710205,192.334946 813.561707,184.069168 
	C807.364258,177.782639 801.461182,171.127502 794.731201,165.463196 
	C785.066528,157.328918 774.906311,149.758545 764.698181,142.302643 
	C756.505249,136.318649 748.128052,130.531021 739.460510,125.269249 
	C731.418152,120.387039 722.949036,116.186546 714.547729,111.922409 
	C704.615845,106.881439 694.676941,101.821335 684.510986,97.285187 
	C676.689697,93.795242 668.578247,90.913223 660.477051,88.103462 
	C650.235596,84.551399 640.032593,80.688515 629.525513,78.150032 
	C614.522705,74.525414 599.105713,72.586540 584.150208,68.803017 
	C569.371765,65.064308 554.335510,64.673401 539.403076,64.237923 
	C518.188904,63.619244 496.926208,64.658730 475.684570,65.007713 
	C474.874512,65.021019 474.068176,65.226738 473.259003,65.334381 
	C464.081207,66.555161 454.904572,67.785004 445.724487,68.988297 
	C442.329437,69.433311 437.923798,68.610657 435.713684,70.450195 
	C428.980255,76.054680 420.429596,76.488930 412.850952,79.190193 
	C411.554169,78.964859 410.131714,78.274017 408.979675,78.584969 
	C394.737091,82.429169 380.362518,85.895958 366.357086,90.483284 
	C338.987671,99.447853 312.746429,111.064888 287.789551,125.557091 
	C263.303162,139.776108 240.291550,156.139023 219.521774,175.257675 
	C189.732391,202.678970 163.188568,232.969238 141.733459,267.602020 
	C125.111282,294.433502 110.897133,322.312164 101.083679,352.318695 
	C93.094765,376.746399 85.564636,401.338989 82.848930,427.049408 
	C80.712608,447.274536 78.329376,467.504974 77.235512,487.796661 
	C76.605881,499.476593 78.064590,511.304657 79.051628,523.026611 
	C80.147545,536.041687 80.730370,549.231689 83.403893,561.953186 
	C88.129951,584.441162 93.914742,606.727905 99.912216,628.921753 
	C106.744247,654.203796 117.530792,678.038147 129.912933,700.965698 
	C140.148010,719.917603 151.712845,738.223755 163.710068,756.131653 
	C175.991501,774.463806 189.488464,792.015320 205.718872,807.154053 
	C220.284988,820.740356 234.883957,834.314758 249.958115,847.327148 
	C268.891296,863.670654 290.050018,876.999329 312.217163,888.328857 
	C331.401398,898.133728 351.278076,906.815186 371.455872,914.372009 
	C387.843201,920.509277 404.945374,925.099182 422.069855,928.809387 
	C440.774078,932.861877 459.813171,935.543152 478.813599,937.988831 
	C490.287079,939.465698 501.958923,939.620178 513.552368,939.869690 
	C521.335327,940.037292 529.148132,939.496704 536.927979,938.978333 
	C550.474487,938.075684 564.280151,938.296326 577.483765,935.615784 
	C601.456055,930.749023 625.337463,925.002502 648.760803,917.970947 
	C679.772583,908.661499 708.566345,894.069885 735.849670,876.658997 
	C756.858948,863.251953 776.633606,848.216675 795.179810,831.494263 
	C811.890320,816.427002 827.375854,800.286072 841.201782,782.566101 
	C857.351379,761.868042 872.058594,740.232483 884.648987,717.122437 
	C897.415771,693.688416 908.299377,669.458374 916.718506,644.184265 
	C926.530396,614.729248 932.444336,584.334106 936.782898,553.640808 
	C937.460999,548.843872 936.945618,543.878174 936.972778,538.160034 
M75.990486,489.500610 
	C75.990486,483.405609 75.990486,477.310638 75.990486,471.215637 
	C75.769386,471.224304 75.548294,471.232971 75.327194,471.241638 
	C75.327194,485.090088 75.327194,498.938538 75.327194,512.786987 
	C75.547882,512.786865 75.768570,512.786743 75.989258,512.786621 
	C75.989258,505.357880 75.989258,497.929077 75.990486,489.500610 
z"/>
<path fill="#FDFBF8" opacity="1.000000" stroke="none" 
	d="
M413.008759,79.917259 
	C420.429596,76.488930 428.980255,76.054680 435.713684,70.450195 
	C437.923798,68.610657 442.329437,69.433311 445.724487,68.988297 
	C454.904572,67.785004 464.081207,66.555161 473.259003,65.334381 
	C474.068176,65.226738 474.874512,65.021019 475.684570,65.007713 
	C496.926208,64.658730 518.188904,63.619244 539.403076,64.237923 
	C554.335510,64.673401 569.371765,65.064308 584.150208,68.803017 
	C599.105713,72.586540 614.522705,74.525414 629.525513,78.150032 
	C640.032593,80.688515 650.235596,84.551399 660.477051,88.103462 
	C668.578247,90.913223 676.689697,93.795242 684.510986,97.285187 
	C694.676941,101.821335 704.615845,106.881439 714.547729,111.922409 
	C722.949036,116.186546 731.418152,120.387039 739.460510,125.269249 
	C748.128052,130.531021 756.505249,136.318649 764.698181,142.302643 
	C774.906311,149.758545 785.066528,157.328918 794.731201,165.463196 
	C801.461182,171.127502 807.364258,177.782639 813.561707,184.069168 
	C821.710205,192.334946 830.172913,200.335312 837.785950,209.072479 
	C845.959900,218.453384 853.410645,228.475800 860.972168,238.374725 
	C865.278015,244.011642 869.374756,249.834198 873.174072,255.821671 
	C875.188293,258.995972 876.365906,262.701172 877.535522,266.539795 
	C876.070251,265.937134 874.824036,265.092773 873.935730,263.966217 
	C858.080505,243.860855 840.162292,225.688065 820.105286,209.899597 
	C753.815430,157.717545 678.561768,128.503311 594.124023,124.176491 
	C555.904358,122.218018 518.207886,126.357140 481.190430,136.513580 
	C420.511139,153.162079 368.207489,184.245682 322.765564,227.411438 
	C287.632141,260.785034 259.850494,299.328278 240.496063,343.825104 
	C228.598312,371.178619 220.959686,399.740112 217.170959,429.289124 
	C215.835159,439.707214 215.474792,450.250366 214.669037,460.736420 
	C216.327774,457.792114 216.679504,454.706268 217.287827,451.671906 
	C217.937424,448.431549 218.772446,445.224670 219.623779,442.029083 
	C235.618240,381.992218 269.020477,333.791290 318.743835,296.816040 
	C365.669891,261.920929 418.475433,241.098541 476.406860,231.763870 
	C487.801575,230.513748 498.766785,228.651062 509.792633,228.164978 
	C524.838379,227.501709 539.930359,227.887177 555.458984,227.895660 
	C586.217712,229.018295 615.768860,234.618256 644.780334,243.107971 
	C699.595947,259.148804 747.792725,286.017059 784.872375,330.456787 
	C804.502991,353.984039 818.711609,380.268799 823.382935,411.427063 
	C824.266418,420.518921 826.287476,429.292450 825.732666,437.899963 
	C824.780518,452.670868 822.219727,467.338074 820.190857,482.423889 
	C819.469238,485.034729 818.964905,487.292603 818.302124,489.502960 
	C804.093384,536.886597 774.740417,573.535339 736.868164,604.083130 
	C721.200317,616.720886 703.787292,626.618225 685.557129,635.828674 
	C681.734497,637.551086 678.278259,639.203003 674.872437,640.865906 
	C674.922791,640.876892 674.903442,640.775574 674.553101,640.828735 
	C672.751831,641.549194 671.301025,642.216553 669.893188,642.895874 
	C669.936157,642.907776 669.924561,642.819275 669.546326,642.861694 
	C655.117126,647.315002 641.066101,651.725891 626.743958,656.097412 
	C626.299377,656.115662 626.126038,656.173157 625.705750,656.208374 
	C625.093018,656.259460 624.863647,656.476868 624.839905,656.859863 
	C624.908997,656.881348 624.908936,656.736633 624.490601,656.770142 
	C614.388489,658.585754 604.704651,660.367859 594.748840,662.105774 
	C594.301453,662.116455 594.126038,662.171265 593.541138,662.216553 
	C580.771484,663.446594 568.436462,665.126648 556.045959,665.836182 
	C528.343933,667.422607 500.647980,666.906311 472.759277,664.122559 
	C472.332581,664.083984 472.159851,664.116943 471.595490,664.078613 
	C466.139801,663.720581 461.075714,663.433899 455.796234,663.079346 
	C455.580841,663.011475 455.132324,662.958618 454.917145,662.613159 
	C452.804871,662.143127 450.907745,662.018494 449.012268,661.931519 
	C449.013885,661.969177 449.086243,661.948120 448.876892,661.609131 
	C444.781250,660.868347 440.894958,660.466553 436.793060,660.025452 
	C436.577454,659.986145 436.140289,659.954834 435.944702,659.617004 
	C420.530060,655.765198 405.311005,652.251160 390.080933,648.796997 
	C390.069916,648.856750 390.189514,648.834900 389.965881,648.559937 
	C388.612061,648.011597 387.481903,647.738281 386.312439,647.477539 
	C386.273163,647.490051 386.215485,647.549011 385.995483,647.323547 
	C384.956940,646.892700 384.138397,646.687256 383.270996,646.497864 
	C383.222137,646.513916 383.229126,646.616516 382.978668,646.364258 
	C378.961060,644.905334 375.193878,643.698608 371.374939,642.490356 
	C371.323181,642.488770 371.222229,642.465698 371.013794,642.267212 
	C370.231689,641.960083 369.658081,641.851501 369.077393,641.804260 
	C369.070374,641.865601 369.190491,641.836731 368.970398,641.549683 
	C366.192108,640.427429 363.633881,639.592224 361.072845,638.817871 
	C361.070007,638.878723 361.186890,638.844299 360.983337,638.554810 
	C358.550415,637.433411 356.321075,636.601440 354.082550,635.823486 
	C354.073364,635.877380 354.180481,635.855042 353.977997,635.563538 
	C350.884644,634.088379 347.993744,632.904724 345.099548,631.786377 
	C345.096283,631.851624 345.219269,631.807373 345.056549,631.537598 
	C344.292847,631.092773 343.691864,630.917725 343.086853,630.805420 
	C343.082855,630.868103 343.202911,630.831177 343.037476,630.563477 
	C342.269775,630.125793 341.667572,629.955933 341.064392,629.842529 
	C341.063416,629.898987 341.171692,629.866699 341.020355,629.592896 
	C340.121979,629.016235 339.374908,628.713379 338.548767,628.388428 
	C338.469666,628.366211 338.305542,628.358704 338.160950,628.173584 
	C337.720673,627.866394 337.413177,627.796021 337.088318,627.830383 
	C337.082855,627.883484 337.185272,627.853210 337.028687,627.581787 
	C336.280579,627.118958 335.689026,626.927490 335.091797,626.798767 
	C335.086121,626.861450 335.206909,626.825867 335.022125,626.537842 
	C333.025543,625.338623 331.213745,624.427368 329.401703,623.563110 
	C329.401459,623.610046 329.334808,623.543884 329.188843,623.331482 
	C328.707825,623.039307 328.372772,622.959534 328.035767,622.920166 
	C328.033783,622.960510 328.109192,622.931519 327.956665,622.662292 
	C327.225861,622.191650 326.647583,621.990234 326.067627,621.845215 
	C326.065948,621.901611 326.174500,621.870728 326.029266,621.596436 
	C325.312103,621.097351 324.740143,620.872620 324.155273,620.713135 
	C324.142303,620.778442 324.265656,620.728271 324.089417,620.466553 
	C322.967102,619.758606 322.020996,619.312439 321.056641,618.909912 
	C321.038391,618.953491 321.126648,618.919556 320.975586,618.637085 
	C320.246643,618.080688 319.668762,617.806763 318.872528,617.293091 
	C290.640106,599.590332 265.908051,578.537964 246.708374,551.405579 
	C245.540939,549.755859 243.936722,548.415100 242.339050,546.665771 
	C240.801086,543.863708 239.459793,541.326538 238.075638,538.435425 
	C235.390778,533.286560 232.748795,528.491516 230.122574,523.505493 
	C230.138336,523.314514 229.924530,522.996399 229.911865,522.633545 
	C224.605042,506.909027 218.708298,491.721313 214.207504,476.130554 
	C210.609436,463.666840 208.709732,450.712860 206.100983,437.643188 
	C206.059952,436.871582 205.974152,436.433258 205.947479,435.612427 
	C205.656204,433.487457 205.305817,431.745026 205.015656,429.668121 
	C205.009705,428.887329 204.943542,428.440979 204.940002,427.609436 
	C204.681992,425.478271 204.361343,423.732300 204.100098,421.612854 
	C204.065842,420.491150 203.972168,419.742859 203.942474,418.567627 
	C203.663834,415.429413 203.321167,412.718170 203.045624,409.632324 
	C203.038361,408.503448 202.963989,407.749207 202.952698,406.530334 
	C202.973312,394.378876 202.930832,382.692017 202.973694,370.634583 
	C203.021866,369.508331 202.984726,368.752716 203.048187,367.601746 
	C203.391876,363.139435 203.634933,359.072510 203.958557,354.635376 
	C204.028687,353.510956 204.018265,352.756805 204.156021,351.655457 
	C204.493378,349.540741 204.682556,347.773163 204.952789,345.675262 
	C205.014099,344.893890 204.994354,344.442871 205.130295,343.662048 
	C205.483246,341.889954 205.680511,340.447662 205.960770,338.678162 
	C206.037140,337.903595 206.030518,337.456238 206.215500,336.675720 
	C209.557968,322.228729 212.708847,308.114868 215.983124,293.645508 
	C217.711807,288.175385 219.317078,283.060791 221.127228,277.451660 
	C221.113678,276.674866 220.895248,276.392670 220.666031,276.041931 
	C220.655243,275.973450 220.645370,275.835083 220.956635,275.999573 
	C221.440796,276.005371 221.613678,275.846619 221.924408,275.494812 
	C223.856064,270.688629 225.649887,266.075500 227.479416,261.410248 
	C227.515106,261.358124 227.591629,261.257629 227.781540,260.962341 
	C228.859573,258.410980 229.551025,256.051941 230.668533,253.915863 
	C236.760529,242.271164 242.957413,230.681335 249.071259,219.055023 
	C249.024323,219.037415 249.080048,219.120773 249.381851,218.954590 
	C252.267426,214.520340 254.851196,210.252304 257.624023,205.876038 
	C257.813080,205.767822 257.917877,205.344940 258.112030,205.134399 
	C259.027618,203.800156 259.749084,202.676453 260.476074,201.503571 
	C260.481598,201.454376 260.574097,201.419083 260.789612,201.172943 
	C263.158691,197.823792 265.312286,194.720749 267.497314,191.562012 
	C267.528778,191.506302 267.630157,191.428299 267.839539,191.215424 
	C268.856079,189.873795 269.663269,188.745056 270.500641,187.560410 
	C270.530823,187.504517 270.631958,187.427643 270.834137,187.224976 
	C271.412811,186.368256 271.789307,185.714188 272.444336,184.942719 
	C273.385773,183.843109 274.048737,182.860886 274.938446,181.635651 
	C277.264008,178.819427 279.362762,176.246201 281.515686,173.612793 
	C281.569794,173.552612 281.680756,173.434753 281.915283,173.225220 
	C284.072388,170.668945 285.994965,168.322235 288.215637,165.819763 
	C303.875580,148.821426 320.214996,132.961563 338.887695,119.861092 
	C351.120636,111.278633 364.252411,103.977257 377.316498,96.033974 
	C378.579926,95.348213 379.508453,94.730591 380.606934,94.153107 
	C380.776886,94.193237 381.013458,93.936279 381.302734,93.931030 
	C381.843536,93.648849 382.095032,93.371925 382.652039,93.103043 
	C383.645721,92.703049 384.333954,92.295006 385.313721,91.895599 
	C385.871765,91.637444 386.138306,91.370644 386.581512,91.142815 
	C386.758179,91.181786 387.015320,90.927223 387.320251,90.923538 
	C387.910828,90.647575 388.196472,90.375290 388.773071,90.117050 
	C389.710236,89.747482 390.356445,89.363876 391.295044,88.969917 
	C392.059784,88.642830 392.532135,88.326096 393.354980,88.013924 
	C395.140442,87.317932 396.575439,86.617371 398.299927,85.932434 
	C399.057587,85.627739 399.525787,85.307419 400.328491,85.001572 
	C401.449188,84.640137 402.235321,84.264229 403.348755,83.899200 
	C403.995941,83.630791 404.315826,83.351517 404.979004,83.075867 
	C407.884430,82.025414 410.446594,80.971336 413.008759,79.917259 
M357.991516,383.542633 
	C346.599121,401.903961 343.268616,421.643707 347.995026,442.711853 
	C357.330292,484.324036 396.015472,504.353424 430.110321,497.744354 
	C467.821503,490.434265 497.759857,454.510406 489.101990,410.331940 
	C483.030273,379.349976 457.357269,354.267700 426.579254,351.218323 
	C397.978363,348.384644 375.068237,359.334778 357.991516,383.542633 
M584.704346,475.774078 
	C603.613098,494.340607 626.103882,503.106934 652.275757,497.156891 
	C694.272888,487.608948 717.575256,450.110168 707.868347,408.209167 
	C701.654297,381.385559 685.332825,362.379730 658.733032,354.166351 
	C632.295776,346.003204 608.098389,352.002625 588.528320,371.448975 
	C560.484619,399.315277 557.327759,444.107544 584.704346,475.774078 
z"/>
<path fill="#171815" opacity="1.000000" stroke="none" 
	d="
M398.010437,85.916809 
	C396.575439,86.617371 395.140442,87.317932 393.189941,87.783127 
	C392.117188,88.025269 391.559906,88.502769 391.002625,88.980270 
	C390.356445,89.363876 389.710236,89.747482 388.488953,90.185272 
	C387.614349,90.468704 387.314850,90.697960 387.015320,90.927223 
	C387.015320,90.927223 386.758179,91.181786 386.315979,91.212296 
	C385.589905,91.457520 385.306030,91.672234 385.022186,91.886955 
	C384.333954,92.295006 383.645721,92.703049 382.388397,93.177231 
	C381.550690,93.474342 381.282074,93.705315 381.013458,93.936279 
	C381.013458,93.936279 380.776886,94.193237 380.212585,94.127022 
	C378.759369,94.741234 377.870483,95.421669 376.981598,96.102112 
	C364.252411,103.977257 351.120636,111.278633 338.887695,119.861092 
	C320.214996,132.961563 303.875580,148.821426 287.850342,165.835144 
	C283.792419,167.326691 280.465851,168.697571 281.680756,173.434753 
	C281.680756,173.434753 281.569794,173.552612 281.167969,173.455811 
	C277.096924,175.025589 273.935638,177.053101 274.711670,181.878662 
	C274.048737,182.860886 273.385773,183.843109 272.077209,184.979187 
	C271.165070,185.897888 270.898499,186.662766 270.631958,187.427643 
	C270.631958,187.427643 270.530823,187.504517 270.114258,187.418915 
	C269.008514,188.698288 268.319336,190.063293 267.630157,191.428299 
	C267.630157,191.428299 267.528778,191.506302 267.144073,191.418106 
	C262.364319,193.262512 260.053650,196.472977 260.574097,201.419083 
	C260.574097,201.419083 260.481598,201.454376 260.081055,201.379395 
	C256.906586,201.697433 256.607635,203.170181 257.917877,205.344940 
	C257.917877,205.344940 257.813080,205.767822 257.325562,205.656799 
	C252.578339,209.114258 249.037186,213.093399 249.080048,219.120773 
	C249.080048,219.120773 249.024323,219.037415 248.713104,219.063263 
	C247.292206,220.014709 245.771606,220.719482 245.136932,221.900406 
	C239.354645,232.659256 233.606598,243.441315 228.166977,254.375015 
	C227.213989,256.290497 227.745636,258.944641 227.591629,261.257629 
	C227.591629,261.257629 227.515106,261.358124 227.092239,261.311096 
	C224.309097,262.759521 219.869156,272.661804 220.607559,274.962158 
	C220.714661,275.295837 221.379715,275.450409 221.786575,275.687866 
	C221.613678,275.846619 221.440796,276.005371 220.723267,276.152649 
	C220.091980,276.245453 220.005371,276.349670 219.918762,276.453857 
	C220.171432,276.339386 220.424118,276.224915 220.676819,276.110443 
	C220.895248,276.392670 221.113678,276.674866 220.793915,277.485138 
	C216.453323,282.656799 214.820663,288.019501 214.667847,294.137878 
	C213.583755,296.687317 212.640472,299.031677 212.041336,301.460876 
	C209.683609,311.020477 207.294830,320.577209 205.253189,330.206177 
	C204.804138,332.324097 205.730759,334.733643 206.023895,337.008911 
	C206.030518,337.456238 206.037140,337.903595 205.609436,338.721252 
	C202.779495,340.629700 201.320969,342.206177 204.974609,343.991852 
	C204.994354,344.442871 205.014099,344.893890 204.591263,345.722839 
	C201.450027,348.004791 200.555664,349.951843 204.007843,352.002625 
	C204.018265,352.756805 204.028687,353.510956 203.592453,354.709412 
	C200.178116,359.098694 200.084808,365.143890 202.947571,367.997101 
	C202.984726,368.752716 203.021866,369.508331 202.607986,370.716003 
	C201.789795,371.675110 201.118423,372.171600 201.100342,372.690826 
	C200.738724,383.082855 200.373093,393.476685 200.274521,403.872711 
	C200.264709,404.905121 201.976746,405.953796 202.889633,406.994934 
	C202.963989,407.749207 203.038361,408.503448 202.669067,409.713989 
	C200.698746,413.500946 199.191528,416.827972 203.878479,418.994598 
	C203.972168,419.742859 204.065842,420.491150 203.729309,421.688324 
	C201.653702,424.674835 200.109589,427.185120 204.877380,427.994629 
	C204.943542,428.440979 205.009705,428.887329 204.698868,429.709381 
	C200.642075,433.168823 203.457764,434.530823 205.888367,435.994904 
	C205.974152,436.433258 206.059952,436.871582 205.789490,437.794983 
	C205.560776,442.448181 205.231583,446.693573 205.920609,450.766724 
	C207.012161,457.219482 208.594925,463.608673 210.314301,469.931091 
	C212.887558,479.393494 215.658386,488.805756 218.540695,498.179230 
	C220.404037,504.238831 222.327911,510.314026 224.807037,516.134155 
	C225.878357,518.649292 225.189651,523.031250 229.924530,522.996399 
	C229.924530,522.996399 230.138336,523.314514 230.093964,523.907593 
	C231.932632,529.102722 233.764877,533.727356 235.780701,538.270569 
	C235.972977,538.703918 237.311905,538.628540 238.118500,538.789307 
	C239.459793,541.326538 240.801086,543.863708 242.529022,546.995728 
	C244.244034,550.075928 245.514038,552.594482 246.909546,555.041565 
	C265.629120,587.866699 290.396637,615.704529 318.014160,641.578979 
	C319.489563,647.844482 319.418793,647.941467 313.181061,649.025269 
	C311.259949,649.359009 308.540466,649.068970 307.597778,650.220154 
	C305.745300,652.482483 300.914703,648.837585 300.677673,653.959351 
	C299.910278,654.051819 299.466431,654.060608 298.972961,653.737366 
	C297.456573,653.370178 295.864227,652.942444 294.544006,653.364929 
	C287.127838,655.738708 279.735138,658.205627 272.451599,660.951538 
	C271.410645,661.343933 271.005981,663.424072 270.194153,664.775269 
	C270.081482,664.827393 269.833344,664.835327 269.425781,664.601990 
	C266.217010,663.731567 264.978180,664.867004 265.026245,667.866089 
	C264.639099,668.055481 264.462585,668.080261 264.171997,667.728149 
	C260.022888,665.414185 261.423279,668.709351 260.964050,670.657227 
	C257.877747,673.627136 254.966705,676.322998 251.680359,679.015137 
	C246.927689,680.595825 246.431290,681.399353 248.018509,684.578491 
	C247.922333,684.975891 247.830811,685.118835 247.341370,685.206055 
	C245.620163,687.212280 243.491074,689.144165 243.133621,691.361694 
	C242.266357,696.741821 242.688431,702.340698 241.701233,707.687134 
	C240.910461,711.969788 242.940720,712.098022 246.136017,712.411987 
	C246.496872,713.697998 246.628296,714.568909 246.531036,715.318848 
	C246.154694,715.273438 246.007034,715.349060 245.859375,715.424622 
	C246.163269,715.541443 246.467178,715.658203 246.954895,715.487183 
	C247.353775,715.273987 247.568863,715.348633 247.543579,715.797119 
	C248.025543,716.857910 248.747894,717.544983 249.568604,718.307922 
	C249.666977,718.383850 249.778534,718.605957 249.572693,718.976257 
	C247.892624,724.584717 253.024887,725.369751 255.419144,727.641296 
	C260.187897,732.165405 264.765900,737.422729 272.072998,737.954956 
	C272.034088,737.984131 272.065521,737.892090 272.079132,738.255432 
	C275.690460,741.052185 279.164276,743.707153 282.941803,745.818909 
	C284.649475,746.773560 286.961151,746.647827 289.005707,747.391846 
	C290.710938,752.642517 294.733459,753.060669 299.337006,752.941650 
	C300.110504,752.226807 300.557983,751.560547 301.342529,750.903931 
	C302.473114,751.229797 303.266632,751.546021 303.965302,752.120728 
	C304.247375,752.919495 304.624298,753.459717 305.294342,754.123535 
	C307.552032,754.827820 309.487488,755.659119 311.492493,755.892029 
	C312.629059,756.024109 313.879608,755.175171 315.407104,754.772339 
	C316.158112,754.888611 316.580872,755.000549 317.015198,755.507202 
	C319.352539,756.605652 321.678314,757.309509 324.150574,758.233337 
	C324.860168,758.307983 325.423309,758.162598 325.994873,757.764587 
	C326.002197,757.343384 326.001007,757.174805 326.335785,756.962036 
	C327.115875,756.989441 327.559967,757.061218 328.011414,757.497009 
	C329.994049,760.318665 336.427307,761.536438 338.759064,759.855286 
	C338.960724,759.709900 338.928009,759.239502 339.379852,758.872986 
	C340.504913,758.921265 341.254272,759.016663 342.014343,759.499268 
	C344.037262,763.220642 346.031128,763.147217 348.406891,759.799072 
	C349.871918,759.866577 350.937775,759.989380 352.018982,760.520020 
	C353.118561,761.615540 354.192566,762.880493 355.288605,762.899841 
	C364.366974,763.060608 373.452057,763.094910 382.527374,762.863953 
	C383.706177,762.833984 384.841003,761.076843 386.327576,760.047668 
	C387.107117,760.017639 387.555237,760.059631 388.001038,760.330078 
	C387.998657,760.558594 388.013977,761.015259 388.245087,761.279175 
	C389.982574,761.365784 391.488983,761.188477 393.442810,761.009399 
	C395.627991,760.369873 397.365753,759.732117 399.329803,759.220642 
	C399.496643,759.509155 399.437225,759.671387 399.677948,760.074097 
	C401.316772,760.214355 402.655518,760.114075 404.307129,759.973145 
	C405.078857,759.321411 405.537689,758.710266 406.320435,757.995361 
	C407.094177,757.883606 407.544037,757.875671 407.993256,758.153259 
	C407.994965,758.629150 407.997314,758.819519 408.139771,759.290405 
	C409.522217,759.383789 410.764587,759.196655 412.327942,759.150330 
	C414.184448,759.690186 415.719910,760.089111 417.343506,760.481812 
	C417.431641,760.475525 417.589630,760.554810 417.415710,760.941406 
	C417.319214,766.613831 422.231293,766.570557 425.254791,767.779236 
	C431.337921,770.210938 437.648438,771.839905 441.636932,777.720581 
	C442.114868,778.425232 443.933228,778.148560 445.085388,778.482056 
	C448.142273,779.366943 453.519012,779.861511 453.821442,781.353027 
	C455.342987,788.857239 460.451935,784.415894 463.902191,785.212036 
	C465.059235,785.479004 466.522461,785.802368 467.180237,786.629333 
	C472.042938,792.742798 471.989838,792.784546 478.544464,789.681030 
	C479.144043,789.397217 479.747894,789.122437 480.528992,788.843384 
	C480.708282,788.843445 481.006989,789.041809 481.158539,789.367188 
	C483.226990,790.747131 485.104279,791.883118 487.069092,792.839294 
	C491.187988,794.843689 495.352905,796.753479 499.980835,798.928589 
	C501.436401,798.849731 503.837799,798.221191 505.994629,798.698303 
	C511.930115,800.011169 517.798645,801.670593 523.616882,803.445007 
	C525.592834,804.047607 527.610657,805.099487 529.139954,806.469910 
	C533.691528,810.548584 540.000061,810.890808 545.423706,807.005981 
	C547.261353,806.984314 548.675293,806.964111 550.052979,806.955505 
	C550.016785,806.967163 550.013489,806.891174 550.267090,807.202148 
	C552.711731,807.665039 554.902710,807.817017 557.327148,807.999390 
	C557.560547,808.029846 558.012939,808.160095 558.303955,808.412720 
	C564.810852,809.441711 571.014954,810.750916 577.244995,810.888428 
	C592.286499,811.220581 607.393555,811.803528 622.374817,810.801331 
	C639.631653,809.646912 656.810852,807.104126 673.958496,804.699158 
	C678.425171,804.072754 682.649231,801.716187 687.297119,800.057007 
	C688.041748,799.908691 688.474121,799.857544 689.098389,800.081909 
	C693.399536,799.547302 698.092041,800.360901 701.343262,796.031555 
	C703.111877,795.431274 704.521118,794.961426 705.927185,794.482239 
	C762.199951,775.303467 810.598938,743.972229 851.213318,700.548645 
	C883.631836,665.887817 907.765991,626.127380 923.992798,581.636047 
	C929.077026,567.696045 932.693665,553.220764 936.982056,538.990540 
	C936.945618,543.878174 937.460999,548.843872 936.782898,553.640808 
	C932.444336,584.334106 926.530396,614.729248 916.718506,644.184265 
	C908.299377,669.458374 897.415771,693.688416 884.648987,717.122437 
	C872.058594,740.232483 857.351379,761.868042 841.201782,782.566101 
	C827.375854,800.286072 811.890320,816.427002 795.179810,831.494263 
	C776.633606,848.216675 756.858948,863.251953 735.849670,876.658997 
	C708.566345,894.069885 679.772583,908.661499 648.760803,917.970947 
	C625.337463,925.002502 601.456055,930.749023 577.483765,935.615784 
	C564.280151,938.296326 550.474487,938.075684 536.927979,938.978333 
	C529.148132,939.496704 521.335327,940.037292 513.552368,939.869690 
	C501.958923,939.620178 490.287079,939.465698 478.813599,937.988831 
	C459.813171,935.543152 440.774078,932.861877 422.069855,928.809387 
	C404.945374,925.099182 387.843201,920.509277 371.455872,914.372009 
	C351.278076,906.815186 331.401398,898.133728 312.217163,888.328857 
	C290.050018,876.999329 268.891296,863.670654 249.958115,847.327148 
	C234.883957,834.314758 220.284988,820.740356 205.718872,807.154053 
	C189.488464,792.015320 175.991501,774.463806 163.710068,756.131653 
	C151.712845,738.223755 140.148010,719.917603 129.912933,700.965698 
	C117.530792,678.038147 106.744247,654.203796 99.912216,628.921753 
	C93.914742,606.727905 88.129951,584.441162 83.403893,561.953186 
	C80.730370,549.231689 80.147545,536.041687 79.051628,523.026611 
	C78.064590,511.304657 76.605881,499.476593 77.235512,487.796661 
	C78.329376,467.504974 80.712608,447.274536 82.848930,427.049408 
	C85.564636,401.338989 93.094765,376.746399 101.083679,352.318695 
	C110.897133,322.312164 125.111282,294.433502 141.733459,267.602020 
	C163.188568,232.969238 189.732391,202.678970 219.521774,175.257675 
	C240.291550,156.139023 263.303162,139.776108 287.789551,125.557091 
	C312.746429,111.064888 338.987671,99.447853 366.357086,90.483284 
	C380.362518,85.895958 394.737091,82.429169 408.979675,78.584969 
	C410.131714,78.274017 411.554169,78.964859 412.929871,79.553726 
	C410.446594,80.971336 407.884430,82.025414 404.673431,83.146500 
	C403.690216,83.438454 403.355865,83.663383 403.021484,83.888321 
	C402.235321,84.264229 401.449188,84.640137 400.164490,84.775154 
	C399.114105,84.995117 398.562256,85.455963 398.010437,85.916809 
z"/>
<path fill="#FD8601" opacity="1.000000" stroke="none" 
	d="
M481.006989,789.041809 
	C481.006989,789.041809 480.708282,788.843445 480.279083,788.565186 
	C458.284485,780.865845 437.535187,771.612549 417.589630,760.554810 
	C417.589630,760.554810 417.431641,760.475525 417.136658,760.254333 
	C415.437286,759.061707 414.032867,758.090271 413.032104,757.008118 
	C414.564911,756.617371 415.684998,756.292419 416.824432,756.064148 
	C432.443085,752.934814 446.942657,747.299927 459.663818,737.442810 
	C478.507294,722.841919 480.338318,703.008850 464.260468,685.421936 
	C454.006805,674.205872 440.590027,668.076660 426.787109,662.076233 
	C424.752045,661.161133 422.804108,660.634705 420.874512,660.119385 
	C420.892792,660.130554 420.855438,660.153748 420.733795,659.859131 
	C419.713287,658.860413 418.814423,658.156311 417.616486,657.217957 
	C424.152954,658.183716 430.146637,659.069275 436.140289,659.954834 
	C436.140289,659.954834 436.577454,659.986145 437.059631,660.296387 
	C441.389954,661.053772 445.238098,661.500977 449.086243,661.948120 
	C449.086243,661.948120 449.013885,661.969177 449.262573,662.239624 
	C451.384949,662.659607 453.258636,662.809143 455.132324,662.958618 
	C455.132324,662.958618 455.580841,663.011475 456.091064,663.335449 
	C461.729919,663.822937 466.858490,663.986389 471.987091,664.149902 
	C472.159851,664.116943 472.332581,664.083984 472.867096,664.499146 
	C473.599884,665.254944 473.951630,665.803467 474.344788,665.835022 
	C483.743713,666.588074 493.137390,667.694092 502.551422,667.916504 
	C529.944458,668.563843 557.316711,667.943848 584.577393,664.903076 
	C587.761719,664.547913 590.829102,663.143860 593.950684,662.226074 
	C594.126038,662.171265 594.301453,662.116455 595.045593,662.361755 
	C601.412720,661.939148 607.263245,661.490723 612.991699,660.400696 
	C617.049561,659.628601 620.942444,657.989014 624.908936,656.736633 
	C624.908936,656.736633 624.908997,656.881348 625.074951,656.843506 
	C625.555420,656.709656 625.792664,656.518005 625.952637,656.230652 
	C626.126038,656.173157 626.299377,656.115662 626.974609,656.333862 
	C628.655029,657.074707 629.833618,657.539795 630.676270,658.150146 
	C628.786255,658.850647 627.134277,659.222961 625.695374,659.993347 
	C620.116394,662.980652 614.605286,666.094543 609.059204,669.116150 
	C609.049500,669.070923 609.135132,669.105774 608.756592,669.076111 
	C607.468994,669.872803 606.559814,670.699158 605.574463,671.562134 
	C605.498352,671.598816 605.334595,671.640625 605.073364,671.531860 
	C604.580750,671.689758 604.349304,671.956421 604.108032,672.174011 
	C604.098083,672.124878 604.191711,672.160828 603.850464,672.145752 
	C603.222473,672.597717 602.935791,673.064758 602.576294,673.563843 
	C602.503479,673.595886 602.353088,673.647766 602.087891,673.540710 
	C601.598267,673.709900 601.373840,673.986084 601.133179,674.198120 
	C601.116943,674.133972 601.247925,674.153015 600.973877,674.219421 
	C600.503113,674.591858 600.306458,674.897888 600.100830,675.148499 
	C600.091797,675.093079 600.202271,675.113342 599.936096,675.189087 
	C599.472961,675.564148 599.276001,675.863525 599.070312,676.116455 
	C599.061584,676.070007 599.147400,676.109802 598.812988,676.112305 
	C598.239929,676.579529 598.001282,677.044189 597.682556,677.590576 
	C597.602478,677.672302 597.395874,677.770447 597.140625,677.638550 
	C596.821960,677.816467 596.758545,678.126160 596.633667,678.500366 
	C596.572205,678.564819 596.433105,678.675903 596.158325,678.572937 
	C595.818909,678.790955 595.754211,679.111877 595.627930,679.497559 
	C595.566345,679.562195 595.424988,679.671326 595.145264,679.570007 
	C594.771545,679.797058 594.677429,680.125366 594.533325,680.463989 
	C594.483398,680.474243 594.451599,680.571106 594.162720,680.501099 
	C593.811279,680.760986 593.748718,681.090881 593.637451,681.478760 
	C593.588806,681.536743 593.511292,681.666931 593.194458,681.574707 
	C592.611633,682.027161 592.345642,682.571777 592.061523,683.077393 
	C592.043457,683.038391 592.128601,683.050598 591.871216,683.169678 
	C591.437500,683.613525 591.261169,683.938293 590.997803,684.594116 
	C581.469604,697.969177 583.395020,712.765442 592.008911,723.094604 
	C595.688293,727.506714 600.201294,731.467529 604.976135,734.681641 
	C631.149902,752.300415 660.844482,759.383484 691.699707,761.782349 
	C715.299805,763.617126 738.902954,762.351562 762.102600,756.956177 
	C779.449280,752.922058 795.765198,746.791748 808.218445,733.235168 
	C820.281250,720.103577 821.634766,703.201721 810.631714,689.303101 
	C805.898071,683.323730 799.675354,678.063293 793.165100,674.033447 
	C770.169006,659.798828 744.195190,654.942627 717.793701,653.265869 
	C697.936707,652.004700 677.940735,652.933472 657.735901,652.632690 
	C656.221069,652.452332 654.977356,652.533569 653.732788,652.599609 
	C651.151123,652.736572 648.568970,652.865356 646.279907,652.874268 
	C650.219849,651.479065 653.952637,650.406433 657.491821,648.883606 
	C661.722656,647.063293 665.787720,644.857910 669.924561,642.819275 
	C669.924561,642.819275 669.936157,642.907776 670.281860,642.931824 
	C672.052856,642.229065 673.478149,641.502319 674.903442,640.775574 
	C674.903442,640.775574 674.922791,640.876892 675.289246,640.911743 
	C679.078308,639.217102 682.500916,637.487671 685.923462,635.758179 
	C703.787292,626.618225 721.200317,616.720886 736.868164,604.083130 
	C774.740417,573.535339 804.093384,536.886597 818.302124,489.502960 
	C818.964905,487.292603 819.469238,485.034729 820.463623,482.535889 
	C821.270447,481.733246 821.863159,481.247253 822.022339,480.646393 
	C826.871948,462.345795 827.626770,443.646973 826.840515,424.888580 
	C826.645325,420.229980 824.571777,415.650085 823.361633,411.034027 
	C818.711609,380.268799 804.502991,353.984039 784.872375,330.456787 
	C747.792725,286.017059 699.595947,259.148804 644.780334,243.107971 
	C615.768860,234.618256 586.217712,229.018295 555.346558,227.515961 
	C554.080505,226.714355 553.390869,226.075989 552.685059,226.057709 
	C529.020020,225.444717 505.411682,226.269806 481.915833,229.274384 
	C479.872620,229.535660 477.971527,230.908417 476.004395,231.764893 
	C418.475433,241.098541 365.669891,261.920929 318.743835,296.816040 
	C269.020477,333.791290 235.618240,381.992218 219.623779,442.029083 
	C218.772446,445.224670 217.937424,448.431549 217.287827,451.671906 
	C216.679504,454.706268 216.327774,457.792114 214.669037,460.736420 
	C215.474792,450.250366 215.835159,439.707214 217.170959,429.289124 
	C220.959686,399.740112 228.598312,371.178619 240.496063,343.825104 
	C259.850494,299.328278 287.632141,260.785034 322.765564,227.411438 
	C368.207489,184.245682 420.511139,153.162079 481.190430,136.513580 
	C518.207886,126.357140 555.904358,122.218018 594.124023,124.176491 
	C678.561768,128.503311 753.815430,157.717545 820.105286,209.899597 
	C840.162292,225.688065 858.080505,243.860855 873.935730,263.966217 
	C874.824036,265.092773 876.070251,265.937134 877.489014,266.927002 
	C885.293762,277.577240 893.501526,287.781189 900.017151,298.970459 
	C906.592957,310.263031 911.683472,322.446198 917.055725,334.404999 
	C920.705383,342.529388 924.297424,350.763733 926.880920,359.263306 
	C930.728760,371.922760 934.153625,384.757812 936.847107,397.707672 
	C939.462341,410.281921 940.963684,423.089874 942.875916,435.806976 
	C943.387085,439.206329 943.837219,442.642731 943.929565,446.072510 
	C944.362244,462.150848 944.776611,478.231628 944.939880,494.314148 
	C944.993164,499.558411 945.808289,505.621277 943.566223,509.885406 
	C939.288330,518.021301 940.222229,526.995850 937.377380,535.206421 
	C937.058350,536.127136 937.098938,537.172485 936.977417,538.575317 
	C932.693665,553.220764 929.077026,567.696045 923.992798,581.636047 
	C907.765991,626.127380 883.631836,665.887817 851.213318,700.548645 
	C810.598938,743.972229 762.199951,775.303467 705.927185,794.482239 
	C704.521118,794.961426 703.111877,795.431274 700.967285,796.046448 
	C696.455750,797.393738 692.681091,798.600098 688.906433,799.806396 
	C688.474121,799.857544 688.041748,799.908691 686.910400,800.048340 
	C675.134277,802.368530 664.057312,804.600220 652.674622,806.575439 
	C650.386597,806.244812 648.388550,805.974609 646.424744,806.131714 
	C639.668579,806.672180 632.936096,807.579346 626.172913,807.943726 
	C616.228577,808.479431 606.265076,808.651855 596.311890,809.036926 
	C595.543335,809.066711 594.792358,809.552551 593.774536,809.882568 
	C593.343689,809.899902 593.171570,809.861023 592.887817,809.442383 
	C591.911194,808.712646 591.069397,808.138367 590.177673,808.045776 
	C573.772522,806.342224 557.362854,804.680054 540.950317,803.048279 
	C536.308533,802.586914 531.654419,802.249939 526.614868,801.876465 
	C511.151550,797.611938 496.079254,793.326904 481.006989,789.041809 
z"/>
<path fill="#141713" opacity="1.000000" stroke="none" 
	d="
M75.989868,490.000458 
	C75.989258,497.929077 75.989258,505.357880 75.989258,512.786621 
	C75.768570,512.786743 75.547882,512.786865 75.327194,512.786987 
	C75.327194,498.938538 75.327194,485.090088 75.327194,471.241638 
	C75.548294,471.232971 75.769386,471.224304 75.990486,471.215637 
	C75.990486,477.310638 75.990486,483.405609 75.989868,490.000458 
z"/>
<path fill="#FE8701" opacity="1.000000" stroke="none" 
	d="
M358.208527,383.252197 
	C375.068237,359.334778 397.978363,348.384644 426.579254,351.218323 
	C457.357269,354.267700 483.030273,379.349976 489.101990,410.331940 
	C497.759857,454.510406 467.821503,490.434265 430.110321,497.744354 
	C396.015472,504.353424 357.330292,484.324036 347.995026,442.711853 
	C343.268616,421.643707 346.599121,401.903961 358.208527,383.252197 
z"/>
<path fill="#FE8701" opacity="1.000000" stroke="none" 
	d="
M584.468994,475.509155 
	C557.327759,444.107544 560.484619,399.315277 588.528320,371.448975 
	C608.098389,352.002625 632.295776,346.003204 658.733032,354.166351 
	C685.332825,362.379730 701.654297,381.385559 707.868347,408.209167 
	C717.575256,450.110168 694.272888,487.608948 652.275757,497.156891 
	C626.103882,503.106934 603.613098,494.340607 584.468994,475.509155 
z"/>
<path fill="#FC8603" opacity="1.000000" stroke="none" 
	d="
M318.005402,641.196167 
	C290.396637,615.704529 265.629120,587.866699 246.909546,555.041565 
	C245.514038,552.594482 244.244034,550.075928 242.725708,547.260620 
	C243.936722,548.415100 245.540939,549.755859 246.708374,551.405579 
	C265.908051,578.537964 290.640106,599.590332 318.978180,617.623108 
	C319.910339,618.435120 320.518494,618.677368 321.126648,618.919556 
	C321.126648,618.919556 321.038391,618.953491 321.086914,619.283325 
	C322.178833,619.984863 323.222260,620.356567 324.265656,620.728271 
	C324.265656,620.728271 324.142303,620.778442 324.249390,621.037354 
	C324.962494,621.487793 325.568481,621.679260 326.174500,621.870728 
	C326.174500,621.870728 326.065948,621.901611 326.200012,622.139709 
	C326.925751,622.562378 327.517487,622.746948 328.109192,622.931519 
	C328.109192,622.931519 328.033783,622.960510 328.164246,623.170288 
	C328.641418,623.434631 328.988129,623.489258 329.334808,623.543884 
	C329.334808,623.543884 329.401459,623.610046 329.408081,623.931763 
	C331.345428,625.110901 333.276184,625.968384 335.206909,626.825867 
	C335.206909,626.825867 335.086121,626.861450 335.216400,627.108643 
	C335.959534,627.521545 336.572418,627.687378 337.185272,627.853210 
	C337.185272,627.853210 337.082855,627.883484 337.190308,628.095642 
	C337.633667,628.324768 337.969604,628.341736 338.305542,628.358704 
	C338.305542,628.358704 338.469666,628.366211 338.480042,628.760071 
	C339.384155,629.391541 340.277924,629.629150 341.171692,629.866699 
	C341.171692,629.866699 341.063416,629.898987 341.208130,630.142151 
	C341.969543,630.533936 342.586212,630.682556 343.202911,630.831177 
	C343.202911,630.831177 343.082855,630.868103 343.217957,631.115967 
	C343.975128,631.511658 344.597198,631.659546 345.219269,631.807373 
	C345.219269,631.807373 345.096283,631.851624 345.230957,632.120239 
	C348.303925,633.544312 351.242218,634.699646 354.180481,635.855042 
	C354.180481,635.855042 354.073364,635.877380 354.189575,636.178894 
	C356.599487,637.268372 358.893188,638.056335 361.186890,638.844299 
	C361.186890,638.844299 361.070007,638.878723 361.224670,639.150391 
	C363.983063,640.226929 366.586792,641.031799 369.190491,641.836731 
	C369.190491,641.836731 369.070374,641.865601 369.219177,642.115234 
	C369.986053,642.398438 370.604126,642.432068 371.222229,642.465698 
	C371.222229,642.465698 371.323181,642.488770 371.382263,642.870972 
	C375.370605,644.374329 379.299866,645.495422 383.229126,646.616516 
	C383.229126,646.616516 383.222137,646.513916 383.329895,646.877441 
	C384.363617,647.343689 385.289551,647.446350 386.215485,647.549011 
	C386.215485,647.549011 386.273163,647.490051 386.370575,647.868774 
	C387.708496,648.443237 388.949005,648.639099 390.189514,648.834900 
	C390.189514,648.834900 390.069916,648.856750 390.202118,649.110596 
	C391.262695,650.093079 392.191071,650.821716 393.526947,651.870117 
	C381.573639,650.537903 370.279480,649.279114 358.518311,648.013916 
	C350.463226,648.007446 342.875122,648.007446 335.287048,648.007446 
	C335.287933,648.274841 335.288849,648.542175 335.289764,648.809570 
	C337.252136,648.906128 339.214539,649.002686 340.794739,649.259888 
	C336.340393,649.581848 332.268250,649.743103 328.044983,649.599243 
	C324.597687,646.594849 321.301544,643.895508 318.005402,641.196167 
z"/>
<path fill="#0F0F0D" opacity="1.000000" stroke="none" 
	d="
M229.911865,522.633545 
	C225.189651,523.031250 225.878357,518.649292 224.807037,516.134155 
	C222.327911,510.314026 220.404037,504.238831 218.540695,498.179230 
	C215.658386,488.805756 212.887558,479.393494 210.314301,469.931091 
	C208.594925,463.608673 207.012161,457.219482 205.920609,450.766724 
	C205.231583,446.693573 205.560776,442.448181 205.744720,438.128235 
	C208.709732,450.712860 210.609436,463.666840 214.207504,476.130554 
	C218.708298,491.721313 224.605042,506.909027 229.911865,522.633545 
z"/>
<path fill="#FE730C" opacity="1.000000" stroke="none" 
	d="
M593.541138,662.216553 
	C590.829102,663.143860 587.761719,664.547913 584.577393,664.903076 
	C557.316711,667.943848 529.944458,668.563843 502.551422,667.916504 
	C493.137390,667.694092 483.743713,666.588074 474.344788,665.835022 
	C473.951630,665.803467 473.599884,665.254944 473.121033,664.570679 
	C500.647980,666.906311 528.343933,667.422607 556.045959,665.836182 
	C568.436462,665.126648 580.771484,663.446594 593.541138,662.216553 
z"/>
<path fill="#FD7407" opacity="1.000000" stroke="none" 
	d="
M358.985321,648.020386 
	C370.279480,649.279114 381.573639,650.537903 393.526947,651.870117 
	C392.191071,650.821716 391.262695,650.093079 390.213135,649.050842 
	C405.311005,652.251160 420.530060,655.765198 435.944702,659.617004 
	C430.146637,659.069275 424.152954,658.183716 417.616486,657.217957 
	C418.814423,658.156311 419.713287,658.860413 420.341858,659.829468 
	C400.089630,654.417969 379.748596,650.880188 358.992126,649.535156 
	C358.992218,648.828186 358.988770,648.424255 358.985321,648.020386 
M414.037994,656.815491 
	C414.437988,656.722961 414.838013,656.630432 415.237976,656.537903 
	C415.150482,656.419006 415.048035,656.189941 414.977997,656.199341 
	C414.571625,656.254517 414.172852,656.365723 414.037994,656.815491 
M397.188019,652.263733 
	C397.030823,652.377319 396.873596,652.490906 396.716400,652.604492 
	C396.935699,652.581543 397.154999,652.558655 397.188019,652.263733 
z"/>
<path fill="#FE730D" opacity="1.000000" stroke="none" 
	d="
M476.406860,231.763885 
	C477.971527,230.908417 479.872620,229.535660 481.915833,229.274384 
	C505.411682,226.269806 529.020020,225.444717 552.685059,226.057709 
	C553.390869,226.075989 554.080505,226.714355 554.890137,227.443314 
	C539.930359,227.887177 524.838379,227.501709 509.792633,228.164978 
	C498.766785,228.651062 487.801575,230.513748 476.406860,231.763885 
z"/>
<path fill="#11110F" opacity="1.000000" stroke="none" 
	d="
M227.781540,260.962341 
	C227.745636,258.944641 227.213989,256.290497 228.166977,254.375015 
	C233.606598,243.441315 239.354645,232.659256 245.136932,221.900406 
	C245.771606,220.719482 247.292206,220.014709 248.760056,219.080872 
	C242.957413,230.681335 236.760529,242.271164 230.668533,253.915863 
	C229.551025,256.051941 228.859573,258.410980 227.781540,260.962341 
z"/>
<path fill="#0F0F0D" opacity="1.000000" stroke="none" 
	d="
M206.215500,336.675720 
	C205.730759,334.733643 204.804138,332.324097 205.253189,330.206177 
	C207.294830,320.577209 209.683609,311.020477 212.041336,301.460876 
	C212.640472,299.031677 213.583755,296.687317 214.891235,294.147644 
	C215.413544,293.991272 215.859726,294.001038 215.859726,294.001038 
	C212.708847,308.114868 209.557968,322.228729 206.215500,336.675720 
z"/>
<path fill="#FD6F06" opacity="1.000000" stroke="none" 
	d="
M823.382935,411.427063 
	C824.571777,415.650085 826.645325,420.229980 826.840515,424.888580 
	C827.626770,443.646973 826.871948,462.345795 822.022339,480.646393 
	C821.863159,481.247253 821.270447,481.733246 820.607056,482.160797 
	C822.219727,467.338074 824.780518,452.670868 825.732666,437.899963 
	C826.287476,429.292450 824.266418,420.518921 823.382935,411.427063 
z"/>
<path fill="#0F0F0D" opacity="1.000000" stroke="none" 
	d="
M202.952698,406.530334 
	C201.976746,405.953796 200.264709,404.905121 200.274521,403.872711 
	C200.373093,393.476685 200.738724,383.082855 201.100342,372.690826 
	C201.118423,372.171600 201.789795,371.675110 202.522675,371.086609 
	C202.930832,382.692017 202.973312,394.378876 202.952698,406.530334 
z"/>
<path fill="#FD760B" opacity="1.000000" stroke="none" 
	d="
M631.012207,658.004883 
	C629.833618,657.539795 628.655029,657.074707 627.245789,656.373169 
	C641.066101,651.725891 655.117126,647.315002 669.546326,642.861694 
	C665.787720,644.857910 661.722656,647.063293 657.491821,648.883606 
	C653.952637,650.406433 650.219849,651.479065 646.036255,652.874390 
	C645.499817,652.997681 645.012207,652.997559 644.640503,653.003418 
	C642.508423,653.668762 640.748108,654.328308 638.611511,654.990601 
	C636.489319,655.672913 634.743469,656.352356 632.827026,657.269531 
	C632.108398,657.673157 631.560303,657.838989 631.012207,658.004883 
z"/>
<path fill="#FD760B" opacity="1.000000" stroke="none" 
	d="
M624.490601,656.770142 
	C620.942444,657.989014 617.049561,659.628601 612.991699,660.400696 
	C607.263245,661.490723 601.412720,661.939148 595.317627,662.405884 
	C604.704651,660.367859 614.388489,658.585754 624.490601,656.770142 
z"/>
<path fill="#11110F" opacity="1.000000" stroke="none" 
	d="
M215.983124,293.645508 
	C215.859726,294.001038 215.413544,293.991272 215.190155,293.981506 
	C214.820663,288.019501 216.453323,282.656799 220.589050,277.979675 
	C219.317078,283.060791 217.711807,288.175385 215.983124,293.645508 
z"/>
<path fill="#0F0F0D" opacity="1.000000" stroke="none" 
	d="
M203.048203,367.601746 
	C200.084808,365.143890 200.178116,359.098694 203.511902,355.079651 
	C203.634933,359.072510 203.391876,363.139435 203.048203,367.601746 
z"/>
<path fill="#11110F" opacity="1.000000" stroke="none" 
	d="
M221.924408,275.494812 
	C221.379715,275.450409 220.714661,275.295837 220.607559,274.962158 
	C219.869156,272.661804 224.309097,262.759521 227.056549,261.363220 
	C225.649887,266.075500 223.856064,270.688629 221.924408,275.494812 
z"/>
<path fill="#0F0F0D" opacity="1.000000" stroke="none" 
	d="
M238.075638,538.435425 
	C237.311905,538.628540 235.972977,538.703918 235.780701,538.270569 
	C233.764877,533.727356 231.932632,529.102722 230.078201,524.098511 
	C232.748795,528.491516 235.390778,533.286560 238.075638,538.435425 
z"/>
<path fill="#11110F" opacity="1.000000" stroke="none" 
	d="
M249.381851,218.954590 
	C249.037186,213.093399 252.578339,209.114258 257.136505,205.765015 
	C254.851196,210.252304 252.267426,214.520340 249.381851,218.954590 
z"/>
<path fill="#0F0F0D" opacity="1.000000" stroke="none" 
	d="
M203.942474,418.567627 
	C199.191528,416.827972 200.698746,413.500946 202.601944,410.088623 
	C203.321167,412.718170 203.663834,415.429413 203.942474,418.567627 
z"/>
<path fill="#11110F" opacity="1.000000" stroke="none" 
	d="
M260.789612,201.172943 
	C260.053650,196.472977 262.364319,193.262512 267.112610,191.473816 
	C265.312286,194.720749 263.158691,197.823792 260.789612,201.172943 
z"/>
<path fill="#11110F" opacity="1.000000" stroke="none" 
	d="
M274.938446,181.635651 
	C273.935638,177.053101 277.096924,175.025589 281.113831,173.515991 
	C279.362762,176.246201 277.264008,178.819427 274.938446,181.635651 
z"/>
<path fill="#FD7407" opacity="1.000000" stroke="none" 
	d="
M471.595490,664.078613 
	C466.858490,663.986389 461.729919,663.822937 456.306458,663.403320 
	C461.075714,663.433899 466.139801,663.720581 471.595490,664.078613 
z"/>
<path fill="#11110F" opacity="1.000000" stroke="none" 
	d="
M281.915283,173.225220 
	C280.465851,168.697571 283.792419,167.326691 287.552277,165.990875 
	C285.994965,168.322235 284.072388,170.668945 281.915283,173.225220 
z"/>
<path fill="#FD760B" opacity="1.000000" stroke="none" 
	d="
M685.557129,635.828735 
	C682.500916,637.487671 679.078308,639.217102 675.238892,640.900757 
	C678.278259,639.203003 681.734497,637.551086 685.557129,635.828735 
z"/>
<path fill="#0F0F0D" opacity="1.000000" stroke="none" 
	d="
M204.940018,427.609436 
	C200.109589,427.185120 201.653702,424.674835 203.669891,422.061768 
	C204.361343,423.732300 204.681992,425.478271 204.940018,427.609436 
z"/>
<path fill="#0F0F0D" opacity="1.000000" stroke="none" 
	d="
M204.156021,351.655457 
	C200.555664,349.951843 201.450027,348.004791 204.510193,346.053223 
	C204.682556,347.773163 204.493378,349.540741 204.156021,351.655457 
z"/>
<path fill="#FD7407" opacity="1.000000" stroke="none" 
	d="
M382.978668,646.364258 
	C379.299866,645.495422 375.370605,644.374329 371.434052,642.872559 
	C375.193878,643.698608 378.961060,644.905334 382.978668,646.364258 
z"/>
<path fill="#FD7407" opacity="1.000000" stroke="none" 
	d="
M448.876892,661.609131 
	C445.238098,661.500977 441.389954,661.053772 437.275238,660.335693 
	C440.894958,660.466553 444.781250,660.868347 448.876892,661.609131 
z"/>
<path fill="#0F0F0D" opacity="1.000000" stroke="none" 
	d="
M205.947479,435.612427 
	C203.457764,434.530823 200.642075,433.168823 204.638657,430.043823 
	C205.305817,431.745026 205.656204,433.487457 205.947479,435.612427 
z"/>
<path fill="#0F0F0D" opacity="1.000000" stroke="none" 
	d="
M205.130295,343.662048 
	C201.320969,342.206177 202.779495,340.629700 205.526459,339.048492 
	C205.680511,340.447662 205.483246,341.889954 205.130295,343.662048 
z"/>
<path fill="#FD7407" opacity="1.000000" stroke="none" 
	d="
M353.977997,635.563538 
	C351.242218,634.699646 348.303925,633.544312 345.234253,632.054993 
	C347.993744,632.904724 350.884644,634.088379 353.977997,635.563538 
z"/>
<path fill="#FD7407" opacity="1.000000" stroke="none" 
	d="
M368.970398,641.549683 
	C366.586792,641.031799 363.983063,640.226929 361.227539,639.089478 
	C363.633881,639.592224 366.192108,640.427429 368.970398,641.549683 
z"/>
<path fill="#FD7407" opacity="1.000000" stroke="none" 
	d="
M360.983337,638.554810 
	C358.893188,638.056335 356.599487,637.268372 354.198761,636.125000 
	C356.321075,636.601440 358.550415,637.433411 360.983337,638.554810 
z"/>
<path fill="#11110F" opacity="1.000000" stroke="none" 
	d="
M267.839539,191.215424 
	C268.319336,190.063293 269.008514,188.698288 270.084106,187.474792 
	C269.663269,188.745056 268.856079,189.873795 267.839539,191.215424 
z"/>
<path fill="#11110F" opacity="1.000000" stroke="none" 
	d="
M258.112030,205.134399 
	C256.607635,203.170181 256.906586,201.697433 260.075562,201.428574 
	C259.749084,202.676453 259.027618,203.800156 258.112030,205.134399 
z"/>
<path fill="#FD7407" opacity="1.000000" stroke="none" 
	d="
M335.022125,626.537842 
	C333.276184,625.968384 331.345428,625.110901 329.408325,623.884766 
	C331.213745,624.427368 333.025543,625.338623 335.022125,626.537842 
z"/>
<path fill="#FD760B" opacity="1.000000" stroke="none" 
	d="
M674.553101,640.828735 
	C673.478149,641.502319 672.052856,642.229065 670.238892,642.919922 
	C671.301025,642.216553 672.751831,641.549194 674.553101,640.828735 
z"/>
<path fill="#FD7407" opacity="1.000000" stroke="none" 
	d="
M454.917145,662.613159 
	C453.258636,662.809143 451.384949,662.659607 449.260956,662.201904 
	C450.907745,662.018494 452.804871,662.143127 454.917145,662.613159 
z"/>
<path fill="#FD7407" opacity="1.000000" stroke="none" 
	d="
M324.089417,620.466553 
	C323.222260,620.356567 322.178833,619.984863 321.105164,619.239746 
	C322.020996,619.312439 322.967102,619.758606 324.089417,620.466553 
z"/>
<path fill="#000000" opacity="1.000000" stroke="none" 
	d="
M377.316498,96.033966 
	C377.870483,95.421669 378.759369,94.741234 380.042603,94.086884 
	C379.508453,94.730591 378.579926,95.348213 377.316498,96.033966 
z"/>
<path fill="#FD7407" opacity="1.000000" stroke="none" 
	d="
M389.965881,648.559937 
	C388.949005,648.639099 387.708496,648.443237 386.409851,647.856201 
	C387.481903,647.738281 388.612061,648.011597 389.965881,648.559937 
z"/>
<path fill="#11110F" opacity="1.000000" stroke="none" 
	d="
M270.834137,187.224976 
	C270.898499,186.662766 271.165070,185.897888 271.798737,185.096573 
	C271.789307,185.714188 271.412811,186.368256 270.834137,187.224976 
z"/>
<path fill="#000000" opacity="1.000000" stroke="none" 
	d="
M391.295044,88.969925 
	C391.559906,88.502769 392.117188,88.025269 392.839478,87.778557 
	C392.532135,88.326096 392.059784,88.642830 391.295044,88.969925 
z"/>
<path fill="#000000" opacity="1.000000" stroke="none" 
	d="
M398.299927,85.932434 
	C398.562256,85.455963 399.114105,84.995117 399.829956,84.760681 
	C399.525787,85.307419 399.057587,85.627739 398.299927,85.932434 
z"/>
<path fill="#FD7407" opacity="1.000000" stroke="none" 
	d="
M385.995483,647.323547 
	C385.289551,647.446350 384.363617,647.343689 383.378754,646.861450 
	C384.138397,646.687256 384.956940,646.892700 385.995483,647.323547 
z"/>
<path fill="#FD7407" opacity="1.000000" stroke="none" 
	d="
M341.020355,629.592896 
	C340.277924,629.629150 339.384155,629.391541 338.559113,628.782227 
	C339.374908,628.713379 340.121979,629.016235 341.020355,629.592896 
z"/>
<path fill="#FD7407" opacity="1.000000" stroke="none" 
	d="
M343.037476,630.563477 
	C342.586212,630.682556 341.969543,630.533936 341.209106,630.085693 
	C341.667572,629.955933 342.269775,630.125793 343.037476,630.563477 
z"/>
<path fill="#FD7407" opacity="1.000000" stroke="none" 
	d="
M371.013794,642.267151 
	C370.604126,642.432068 369.986053,642.398438 369.226196,642.053833 
	C369.658081,641.851501 370.231689,641.960083 371.013794,642.267151 
z"/>
<path fill="#FD7407" opacity="1.000000" stroke="none" 
	d="
M345.056549,631.537598 
	C344.597198,631.659546 343.975128,631.511658 343.221985,631.053223 
	C343.691864,630.917725 344.292847,631.092773 345.056549,631.537598 
z"/>
<path fill="#FD7407" opacity="1.000000" stroke="none" 
	d="
M327.956665,622.662292 
	C327.517487,622.746948 326.925751,622.562378 326.201660,622.083374 
	C326.647583,621.990234 327.225861,622.191650 327.956665,622.662292 
z"/>
<path fill="#FD7407" opacity="1.000000" stroke="none" 
	d="
M320.975586,618.637085 
	C320.518494,618.677368 319.910339,618.435120 319.196533,617.862915 
	C319.668762,617.806763 320.246643,618.080688 320.975586,618.637085 
z"/>
<path fill="#FD7407" opacity="1.000000" stroke="none" 
	d="
M326.029266,621.596436 
	C325.568481,621.679260 324.962494,621.487793 324.262360,620.972046 
	C324.740143,620.872620 325.312103,621.097351 326.029266,621.596436 
z"/>
<path fill="#FD7407" opacity="1.000000" stroke="none" 
	d="
M337.028687,627.581787 
	C336.572418,627.687378 335.959534,627.521545 335.222107,627.045898 
	C335.689026,626.927490 336.280579,627.118958 337.028687,627.581787 
z"/>
<path fill="#000000" opacity="1.000000" stroke="none" 
	d="
M403.348755,83.899193 
	C403.355865,83.663383 403.690216,83.438454 404.330139,83.142883 
	C404.315826,83.351517 403.995941,83.630791 403.348755,83.899193 
z"/>
<path fill="#FD7407" opacity="1.000000" stroke="none" 
	d="
M329.188843,623.331482 
	C328.988129,623.489258 328.641418,623.434631 328.166229,623.129883 
	C328.372772,622.959534 328.707825,623.039307 329.188843,623.331482 
z"/>
<path fill="#FD760B" opacity="1.000000" stroke="none" 
	d="
M625.705750,656.208374 
	C625.792664,656.518005 625.555420,656.709656 625.005859,656.822021 
	C624.863647,656.476868 625.093018,656.259460 625.705750,656.208374 
z"/>
<path fill="#000000" opacity="1.000000" stroke="none" 
	d="
M387.320251,90.923538 
	C387.314850,90.697960 387.614349,90.468704 388.197998,90.171234 
	C388.196472,90.375290 387.910828,90.647575 387.320251,90.923538 
z"/>
<path fill="#000000" opacity="1.000000" stroke="none" 
	d="
M385.313721,91.895599 
	C385.306030,91.672234 385.589905,91.457520 386.139313,91.173325 
	C386.138306,91.370644 385.871765,91.637444 385.313721,91.895599 
z"/>
<path fill="#000000" opacity="1.000000" stroke="none" 
	d="
M381.302734,93.931030 
	C381.282074,93.705315 381.550690,93.474342 382.082947,93.169189 
	C382.095032,93.371925 381.843536,93.648849 381.302734,93.931030 
z"/>
<path fill="#FD7407" opacity="1.000000" stroke="none" 
	d="
M338.160950,628.173584 
	C337.969604,628.341736 337.633667,628.324768 337.195770,628.042542 
	C337.413177,627.796021 337.720673,627.866394 338.160950,628.173584 
z"/>
<path fill="#11110F" opacity="1.000000" stroke="none" 
	d="
M220.666031,276.041931 
	C220.424118,276.224915 220.171432,276.339386 219.918762,276.453857 
	C220.005371,276.349670 220.091980,276.245453 220.411987,275.988159 
	C220.645370,275.835083 220.655243,275.973450 220.666031,276.041931 
z"/>
<path fill="#FCFBF8" opacity="1.000000" stroke="none" 
	d="
M358.988525,649.838379 
	C379.748596,650.880188 400.089630,654.417969 420.463501,660.124023 
	C420.855438,660.153748 420.892792,660.130554 421.095581,660.407593 
	C423.157013,661.278015 425.015656,661.871460 426.874298,662.464905 
	C440.590027,668.076660 454.006805,674.205872 464.260468,685.421936 
	C480.338318,703.008850 478.507294,722.841919 459.663818,737.442810 
	C446.942657,747.299927 432.443085,752.934814 416.824432,756.064148 
	C415.684998,756.292419 414.564911,756.617371 412.673279,756.962891 
	C410.756561,757.269165 409.602356,757.509888 408.314514,757.702026 
	C408.180878,757.653442 407.993866,757.867676 407.993866,757.867676 
	C407.544037,757.875671 407.094177,757.883606 405.883392,757.938232 
	C403.241913,758.565247 401.361359,759.145508 399.465576,759.762756 
	C399.450287,759.799683 399.377838,759.833557 399.377838,759.833557 
	C399.437225,759.671387 399.496643,759.509155 398.953064,759.164185 
	C394.901184,759.354858 391.452271,759.728210 388.003387,760.101562 
	C387.555237,760.059631 387.107117,760.017639 385.862885,759.983826 
	C374.045746,760.032043 363.024689,760.072144 352.003632,760.112183 
	C350.937775,759.989380 349.871918,759.866577 348.074158,759.613159 
	C345.562683,759.359009 343.783173,759.235474 342.003632,759.112000 
	C341.254272,759.016663 340.504913,758.921265 339.031616,758.683655 
	C334.873138,758.071899 331.438629,757.602417 328.004089,757.132935 
	C327.559967,757.061218 327.115875,756.989441 325.997162,756.775696 
	C322.549561,756.126648 319.776611,755.619568 317.003632,755.112488 
	C316.580872,755.000549 316.158112,754.888611 315.141296,754.524231 
	C312.163757,753.794373 309.780243,753.316956 307.238098,752.600098 
	C306.719299,752.295227 306.359100,752.229736 305.685486,752.062866 
	C304.934784,751.928467 304.497467,751.895325 304.060150,751.862183 
	C303.266632,751.546021 302.473114,751.229797 301.178131,750.661011 
	C300.118713,750.302368 299.560699,750.196411 298.705750,749.994873 
	C297.993195,749.913086 297.577606,749.926880 297.009583,749.620239 
	C294.905579,748.557251 292.954041,747.814636 290.834839,746.964966 
	C290.667206,746.858032 290.270844,746.890259 290.058014,746.598633 
	C283.918610,743.502075 277.992065,740.697083 272.065521,737.892090 
	C272.065521,737.892090 272.034088,737.984131 271.901184,737.658020 
	C263.318237,732.405273 255.708786,726.491577 249.778534,718.605957 
	C249.778534,718.605957 249.666977,718.383850 249.422668,718.069580 
	C248.713562,716.977966 248.248749,716.200623 247.783936,715.423340 
	C247.568863,715.348633 247.353775,715.273987 246.936157,715.397156 
	C246.733612,715.594910 246.759735,715.439819 246.759735,715.439819 
	C246.628296,714.568909 246.496872,713.697998 246.125031,712.018921 
	C242.218674,702.254883 243.290634,693.637634 247.739273,685.261719 
	C247.830811,685.118835 247.922333,684.975891 248.274231,684.434937 
	C249.708298,682.364136 250.881989,680.691528 252.055664,679.018860 
	C254.966705,676.322998 257.877747,673.627136 261.239288,670.566040 
	C262.555237,669.502136 263.420685,668.803589 264.286133,668.104980 
	C264.462585,668.080261 264.639099,668.055481 265.343384,667.720093 
	C267.191895,666.551453 268.512604,665.693359 269.833344,664.835327 
	C269.833344,664.835327 270.081482,664.827393 270.525757,664.605347 
	C280.320923,660.945312 289.671753,657.507385 299.022614,654.069458 
	C299.466431,654.060608 299.910278,654.051819 301.085327,653.998291 
	C310.609741,652.603821 319.402924,651.254089 328.196106,649.904358 
	C332.268250,649.743103 336.340393,649.581848 341.240662,649.333008 
	C347.708710,649.442993 353.348602,649.640686 358.988525,649.838379 
z"/>
<path fill="#171615" opacity="1.000000" stroke="none" 
	d="
M417.415710,760.941406 
	C437.535187,771.612549 458.284485,780.865845 480.099792,788.565186 
	C479.747894,789.122437 479.144043,789.397217 478.544464,789.681030 
	C471.989838,792.784546 472.042938,792.742798 467.180237,786.629333 
	C466.522461,785.802368 465.059235,785.479004 463.902191,785.212036 
	C460.451935,784.415894 455.342987,788.857239 453.821442,781.353027 
	C453.519012,779.861511 448.142273,779.366943 445.085388,778.482056 
	C443.933228,778.148560 442.114868,778.425232 441.636932,777.720581 
	C437.648438,771.839905 431.337921,770.210938 425.254791,767.779236 
	C422.231293,766.570557 417.319214,766.613831 417.415710,760.941406 
z"/>
<path fill="#0D0A1B" opacity="1.000000" stroke="none" 
	d="
M652.980286,806.831848 
	C664.057312,804.600220 675.134277,802.368530 686.598022,800.145508 
	C682.649231,801.716187 678.425171,804.072754 673.958496,804.699158 
	C656.810852,807.104126 639.631653,809.646912 622.374817,810.801331 
	C607.393555,811.803528 592.286499,811.220581 577.244995,810.888428 
	C571.014954,810.750916 564.810852,809.441711 558.750244,808.309143 
	C570.270142,808.575989 581.634766,809.199036 592.999390,809.822021 
	C593.171570,809.861023 593.343689,809.899902 594.236328,809.953613 
	C614.297974,808.922974 633.639160,807.877380 652.980286,806.831848 
z"/>
<path fill="#171615" opacity="1.000000" stroke="none" 
	d="
M481.158539,789.367188 
	C496.079254,793.326904 511.151550,797.611938 526.990784,801.992310 
	C530.843079,802.783081 533.928345,803.478516 537.105469,804.538574 
	C539.164490,805.247986 541.131653,805.592712 543.057495,805.938477 
	C543.016052,805.939636 543.060242,805.869568 543.142334,806.111084 
	C543.479370,806.568054 543.734375,806.783508 544.242065,807.000061 
	C544.663086,807.003174 544.831543,807.005249 545.000000,807.007324 
	C540.000061,810.890808 533.691528,810.548584 529.139954,806.469910 
	C527.610657,805.099487 525.592834,804.047607 523.616882,803.445007 
	C517.798645,801.670593 511.930115,800.011169 505.994629,798.698303 
	C503.837799,798.221191 501.436401,798.849731 499.980835,798.928589 
	C495.352905,796.753479 491.187988,794.843689 487.069092,792.839294 
	C485.104279,791.883118 483.226990,790.747131 481.158539,789.367188 
z"/>
<path fill="#F09702" opacity="1.000000" stroke="none" 
	d="
M537.013672,804.174011 
	C533.928345,803.478516 530.843079,802.783081 527.381836,801.971680 
	C531.654419,802.249939 536.308533,802.586914 540.950317,803.048279 
	C557.362854,804.680054 573.772522,806.342224 590.177673,808.045776 
	C591.069397,808.138367 591.911194,808.712646 592.887817,809.442383 
	C581.634766,809.199036 570.270142,808.575989 558.459229,808.056519 
	C558.012939,808.160095 557.560547,808.029846 557.098694,807.658325 
	C554.429077,807.154907 552.221252,807.023010 550.013489,806.891174 
	C550.013489,806.891174 550.016785,806.967163 549.832031,806.617615 
	C547.768982,806.227905 545.890747,806.187683 543.776245,806.071777 
	C543.539978,805.996155 543.060242,805.869568 543.060242,805.869568 
	C543.060242,805.869568 543.016052,805.939636 542.875732,805.618774 
	C540.828125,804.923340 538.920898,804.548706 537.013672,804.174011 
z"/>
<path fill="#11110F" opacity="1.000000" stroke="none" 
	d="
M352.018982,760.520020 
	C363.024689,760.072144 374.045746,760.032043 385.531494,760.055847 
	C384.841003,761.076843 383.706177,762.833984 382.527374,762.863953 
	C373.452057,763.094910 364.366974,763.060608 355.288605,762.899841 
	C354.192566,762.880493 353.118561,761.615540 352.018982,760.520020 
z"/>
<path fill="#161413" opacity="1.000000" stroke="none" 
	d="
M328.044983,649.599243 
	C319.402924,651.254089 310.609741,652.603821 301.408905,653.914673 
	C300.914703,648.837585 305.745300,652.482483 307.597778,650.220154 
	C308.540466,649.068970 311.259949,649.359009 313.181061,649.025269 
	C319.418793,647.941467 319.489563,647.844482 318.014160,641.578979 
	C321.301544,643.895508 324.597687,646.594849 328.044983,649.599243 
z"/>
<path fill="#11110F" opacity="1.000000" stroke="none" 
	d="
M247.341370,685.206055 
	C243.290634,693.637634 242.218674,702.254883 245.895599,711.603882 
	C242.940720,712.098022 240.910461,711.969788 241.701233,707.687134 
	C242.688431,702.340698 242.266357,696.741821 243.133621,691.361694 
	C243.491074,689.144165 245.620163,687.212280 247.341370,685.206055 
z"/>
<path fill="#161413" opacity="1.000000" stroke="none" 
	d="
M298.972961,653.737366 
	C289.671753,657.507385 280.320923,660.945312 270.638428,664.553223 
	C271.005981,663.424072 271.410645,661.343933 272.451599,660.951538 
	C279.735138,658.205627 287.127838,655.738708 294.544006,653.364929 
	C295.864227,652.942444 297.456573,653.370178 298.972961,653.737366 
z"/>
<path fill="#11110F" opacity="1.000000" stroke="none" 
	d="
M249.572693,718.976257 
	C255.708786,726.491577 263.318237,732.405273 271.940063,737.628845 
	C264.765900,737.422729 260.187897,732.165405 255.419144,727.641296 
	C253.024887,725.369751 247.892624,724.584717 249.572693,718.976257 
z"/>
<path fill="#11110F" opacity="1.000000" stroke="none" 
	d="
M272.079132,738.255432 
	C277.992065,740.697083 283.918610,743.502075 289.740021,746.629272 
	C289.422852,746.971680 289.210815,746.991943 288.998779,747.012207 
	C286.961151,746.647827 284.649475,746.773560 282.941803,745.818909 
	C279.164276,743.707153 275.690460,741.052185 272.079132,738.255432 
z"/>
<path fill="#171615" opacity="1.000000" stroke="none" 
	d="
M289.005707,747.391846 
	C289.210815,746.991943 289.422852,746.971680 289.952850,746.920898 
	C290.270844,746.890259 290.667206,746.858032 290.898926,747.322754 
	C293.141083,748.505249 295.151550,749.222961 297.162018,749.940674 
	C297.577606,749.926880 297.993195,749.913086 298.701721,750.357422 
	C299.000122,751.540466 299.005554,752.265381 299.010986,752.990234 
	C294.733459,753.060669 290.710938,752.642517 289.005707,747.391846 
z"/>
<path fill="#11110F" opacity="1.000000" stroke="none" 
	d="
M328.011414,757.496948 
	C331.438629,757.602417 334.873138,758.071899 338.655914,758.730713 
	C338.928009,759.239502 338.960724,759.709900 338.759064,759.855286 
	C336.427307,761.536438 329.994049,760.318665 328.011414,757.496948 
z"/>
<path fill="#11110F" opacity="1.000000" stroke="none" 
	d="
M307.396729,752.839600 
	C309.780243,753.316956 312.163757,753.794373 314.813049,754.519897 
	C313.879608,755.175171 312.629059,756.024109 311.492493,755.892029 
	C309.487488,755.659119 307.552032,754.827820 305.403198,753.903381 
	C305.416138,753.282288 305.676819,753.091858 306.352112,752.971802 
	C306.934418,752.916809 307.165558,752.878235 307.396729,752.839600 
z"/>
<path fill="#0D0A1B" opacity="1.000000" stroke="none" 
	d="
M689.098389,800.081909 
	C692.681091,798.600098 696.455750,797.393738 700.606445,796.172485 
	C698.092041,800.360901 693.399536,799.547302 689.098389,800.081909 
z"/>
<path fill="#11110F" opacity="1.000000" stroke="none" 
	d="
M317.015198,755.507202 
	C319.776611,755.619568 322.549561,756.126648 325.661163,756.819946 
	C326.001007,757.174805 326.002197,757.343384 325.664734,757.760010 
	C324.885406,758.009949 324.444763,758.011658 324.004089,758.013367 
	C321.678314,757.309509 319.352539,756.605652 317.015198,755.507202 
z"/>
<path fill="#11110F" opacity="1.000000" stroke="none" 
	d="
M388.001038,760.330078 
	C391.452271,759.728210 394.901184,759.354858 398.726807,759.037903 
	C397.365753,759.732117 395.627991,760.369873 393.027588,761.005981 
	C390.781250,761.007935 389.397614,761.011597 388.013977,761.015259 
	C388.013977,761.015259 387.998657,760.558594 388.001038,760.330078 
z"/>
<path fill="#11110F" opacity="1.000000" stroke="none" 
	d="
M342.014343,759.499268 
	C343.783173,759.235474 345.562683,759.359009 347.674988,759.668457 
	C346.031128,763.147217 344.037262,763.220642 342.014343,759.499268 
z"/>
<path fill="#11110F" opacity="1.000000" stroke="none" 
	d="
M251.680359,679.015137 
	C250.881989,680.691528 249.708298,682.364136 248.278870,684.180420 
	C246.431290,681.399353 246.927689,680.595825 251.680359,679.015137 
z"/>
<path fill="#171615" opacity="1.000000" stroke="none" 
	d="
M408.448151,757.750610 
	C409.602356,757.509888 410.756561,757.269165 412.269592,757.073669 
	C414.032867,758.090271 415.437286,759.061707 417.048523,760.260620 
	C415.719910,760.089111 414.184448,759.690186 412.324768,759.145874 
	C412.000549,759.000610 411.998779,759.000000 411.735718,758.715576 
	C410.464447,758.204224 409.456299,757.977417 408.448151,757.750610 
z"/>
<path fill="#11110F" opacity="1.000000" stroke="none" 
	d="
M399.480835,759.725830 
	C401.361359,759.145508 403.241913,758.565247 405.559479,758.041992 
	C405.537689,758.710266 405.078857,759.321411 403.742004,759.960449 
	C401.736298,759.900818 400.608551,759.813293 399.480835,759.725830 
z"/>
<path fill="#161413" opacity="1.000000" stroke="none" 
	d="
M264.172028,667.728149 
	C263.420685,668.803589 262.555237,669.502136 261.414551,670.291931 
	C261.423279,668.709351 260.022888,665.414185 264.172028,667.728149 
z"/>
<path fill="#161413" opacity="1.000000" stroke="none" 
	d="
M269.425781,664.601990 
	C268.512604,665.693359 267.191895,666.551453 265.554047,667.555542 
	C264.978180,664.867004 266.217010,663.731567 269.425781,664.601990 
z"/>
<path fill="#0D0A1B" opacity="1.000000" stroke="none" 
	d="
M550.267090,807.202148 
	C552.221252,807.023010 554.429077,807.154907 556.865295,807.627930 
	C554.902710,807.817017 552.711731,807.665039 550.267090,807.202148 
z"/>
<path fill="#0D0A1B" opacity="1.000000" stroke="none" 
	d="
M544.012451,806.147461 
	C545.890747,806.187683 547.768982,806.227905 549.868225,806.605957 
	C548.675293,806.964111 547.261353,806.984314 545.423706,807.005981 
	C544.831543,807.005249 544.663086,807.003174 544.244324,806.787109 
	C543.993958,806.573059 544.012451,806.147522 544.012451,806.147461 
z"/>
<path fill="#11110F" opacity="1.000000" stroke="none" 
	d="
M247.543579,715.797119 
	C248.248749,716.200623 248.713562,716.977966 249.324295,717.993652 
	C248.747894,717.544983 248.025543,716.857910 247.543579,715.797119 
z"/>
<path fill="#171615" opacity="1.000000" stroke="none" 
	d="
M412.003723,759.005005 
	C410.764587,759.196655 409.522217,759.383789 408.539734,759.287598 
	C409.865997,759.002808 410.932404,759.001404 411.998779,759.000000 
	C411.998779,759.000000 412.000549,759.000610 412.003723,759.005005 
z"/>
<path fill="#11110F" opacity="1.000000" stroke="none" 
	d="
M299.337036,752.941650 
	C299.005554,752.265381 299.000122,751.540466 298.998718,750.453003 
	C299.560699,750.196411 300.118713,750.302368 300.841095,750.651306 
	C300.557983,751.560547 300.110504,752.226807 299.337036,752.941650 
z"/>
<path fill="#171615" opacity="1.000000" stroke="none" 
	d="
M388.245087,761.279175 
	C389.397614,761.011597 390.781250,761.007935 392.580139,761.007690 
	C391.488983,761.188477 389.982574,761.365784 388.245087,761.279175 
z"/>
<path fill="#171615" opacity="1.000000" stroke="none" 
	d="
M399.465576,759.762756 
	C400.608551,759.813293 401.736298,759.900818 403.429138,760.001038 
	C402.655518,760.114075 401.316772,760.214355 399.677948,760.074097 
	C399.377838,759.833557 399.450287,759.799683 399.465576,759.762756 
z"/>
<path fill="#11110F" opacity="1.000000" stroke="none" 
	d="
M411.735718,758.715576 
	C410.932404,759.001404 409.865997,759.002808 408.399658,759.007080 
	C407.997314,758.819519 407.994965,758.629150 407.993256,758.153259 
	C407.993866,757.867676 408.180878,757.653442 408.314514,757.702026 
	C409.456299,757.977417 410.464447,758.204224 411.735718,758.715576 
z"/>
<path fill="#171615" opacity="1.000000" stroke="none" 
	d="
M306.000977,752.988281 
	C305.676819,753.091858 305.416138,753.282288 305.110107,753.779846 
	C304.624298,753.459717 304.247375,752.919495 303.965302,752.120728 
	C304.497467,751.895325 304.934784,751.928467 305.686066,752.268921 
	C306.000031,752.576233 306.000977,752.988281 306.000977,752.988281 
z"/>
<path fill="#171615" opacity="1.000000" stroke="none" 
	d="
M324.150574,758.233337 
	C324.444763,758.011658 324.885406,758.009949 325.656250,758.012695 
	C325.423309,758.162598 324.860168,758.307983 324.150574,758.233337 
z"/>
<path fill="#11110F" opacity="1.000000" stroke="none" 
	d="
M246.531036,715.318848 
	C246.759735,715.439819 246.733612,715.594910 246.752350,715.684937 
	C246.467178,715.658203 246.163269,715.541443 245.859375,715.424622 
	C246.007034,715.349060 246.154694,715.273438 246.531036,715.318848 
z"/>
<path fill="#FDFBF8" opacity="1.000000" stroke="none" 
	d="
M658.006592,652.887451 
	C677.940735,652.933472 697.936707,652.004700 717.793701,653.265869 
	C744.195190,654.942627 770.169006,659.798828 793.165100,674.033447 
	C799.675354,678.063293 805.898071,683.323730 810.631714,689.303101 
	C821.634766,703.201721 820.281250,720.103577 808.218445,733.235168 
	C795.765198,746.791748 779.449280,752.922058 762.102600,756.956177 
	C738.902954,762.351562 715.299805,763.617126 691.699707,761.782349 
	C660.844482,759.383484 631.149902,752.300415 604.976135,734.681641 
	C600.201294,731.467529 595.688293,727.506714 592.008911,723.094604 
	C583.395020,712.765442 581.469604,697.969177 591.252686,684.473022 
	C591.772522,683.697510 591.950562,683.374084 592.128662,683.050598 
	C592.128601,683.050598 592.043457,683.038391 592.309204,682.981323 
	C592.887024,682.505127 593.199158,682.085999 593.511292,681.666931 
	C593.511292,681.666931 593.588806,681.536743 593.807739,681.381042 
	C594.241577,681.054932 594.383240,680.836853 594.451599,680.571106 
	C594.451599,680.571106 594.483398,680.474243 594.712036,680.380981 
	C595.167114,680.133301 595.328491,679.927856 595.424988,679.671326 
	C595.424988,679.671326 595.566345,679.562195 595.787964,679.411987 
	C596.213562,679.111755 596.354675,678.916504 596.433105,678.675903 
	C596.433105,678.675903 596.572205,678.564819 596.782471,678.428284 
	C597.183228,678.161377 597.317627,677.987610 597.395874,677.770447 
	C597.395874,677.770447 597.602478,677.672302 597.892212,677.452881 
	C598.503784,676.858948 598.825623,676.484375 599.147400,676.109802 
	C599.147400,676.109802 599.061584,676.070007 599.332275,676.031799 
	C599.802673,675.700134 600.002441,675.406738 600.202271,675.113342 
	C600.202271,675.113342 600.091797,675.093079 600.363708,675.062805 
	C600.839722,674.739380 601.043823,674.446228 601.247925,674.153015 
	C601.247925,674.153015 601.116943,674.133972 601.364258,674.154541 
	C601.940552,674.114380 602.187744,673.938660 602.353088,673.647766 
	C602.353088,673.647766 602.503479,673.595886 602.807007,673.435791 
	C603.470886,672.904053 603.831299,672.532410 604.191711,672.160828 
	C604.191711,672.160828 604.098083,672.124878 604.338135,672.130005 
	C604.911987,672.094971 605.164124,671.930115 605.334595,671.640625 
	C605.334595,671.640625 605.498352,671.598816 605.840088,671.423096 
	C607.166199,670.533447 608.150696,669.819641 609.135132,669.105774 
	C609.135132,669.105774 609.049500,669.070923 609.416443,669.048950 
	C619.005127,665.200806 628.226868,661.374695 637.433228,657.536621 
	C637.417908,657.524597 637.437195,657.499268 637.783447,657.412109 
	C639.749207,656.850281 641.368835,656.375488 643.244873,655.932251 
	C643.665833,655.912598 643.830261,655.861328 644.387878,655.818115 
	C649.189575,654.846558 653.598083,653.867004 658.006592,652.887451 
z"/>
<path fill="#F89D01" opacity="1.000000" stroke="none" 
	d="
M652.674622,806.575439 
	C633.639160,807.877380 614.297974,808.922974 594.495056,809.897461 
	C594.792358,809.552551 595.543335,809.066711 596.311890,809.036926 
	C606.265076,808.651855 616.228577,808.479431 626.172913,807.943726 
	C632.936096,807.579346 639.668579,806.672180 646.424744,806.131714 
	C648.388550,805.974609 650.386597,806.244812 652.674622,806.575439 
z"/>
<path fill="#FC7911" opacity="1.000000" stroke="none" 
	d="
M637.448547,657.548584 
	C628.226868,661.374695 619.005127,665.200806 609.426147,669.094116 
	C614.605286,666.094543 620.116394,662.980652 625.695374,659.993347 
	C627.134277,659.222961 628.786255,658.850647 630.676270,658.150146 
	C631.560303,657.838989 632.108398,657.673157 633.277954,657.260254 
	C635.082520,657.191589 636.265503,657.370056 637.448547,657.548584 
z"/>
<path fill="#FC7911" opacity="1.000000" stroke="none" 
	d="
M657.735901,652.632751 
	C653.598083,653.867004 649.189575,654.846558 644.420288,655.517700 
	C644.377075,654.472046 644.694641,653.734802 645.012207,652.997559 
	C645.012207,652.997559 645.499817,652.997681 645.743408,652.997620 
	C648.568970,652.865356 651.151123,652.736572 653.732788,652.599609 
	C654.977356,652.533569 656.221069,652.452332 657.735901,652.632751 
z"/>
<path fill="#FD7407" opacity="1.000000" stroke="none" 
	d="
M426.787109,662.076233 
	C425.015656,661.871460 423.157013,661.278015 421.077271,660.396423 
	C422.804108,660.634705 424.752045,661.161133 426.787109,662.076233 
z"/>
<path fill="#FC7911" opacity="1.000000" stroke="none" 
	d="
M608.756592,669.076111 
	C608.150696,669.819641 607.166199,670.533447 605.916199,671.386353 
	C606.559814,670.699158 607.468994,669.872803 608.756592,669.076111 
z"/>
<path fill="#FC7911" opacity="1.000000" stroke="none" 
	d="
M593.194458,681.574707 
	C593.199158,682.085999 592.887024,682.505127 592.327271,683.020386 
	C592.345642,682.571777 592.611633,682.027161 593.194458,681.574707 
z"/>
<path fill="#FC7911" opacity="1.000000" stroke="none" 
	d="
M603.850464,672.145752 
	C603.831299,672.532410 603.470886,672.904053 602.879822,673.403748 
	C602.935791,673.064758 603.222473,672.597717 603.850464,672.145752 
z"/>
<path fill="#FC7911" opacity="1.000000" stroke="none" 
	d="
M598.812988,676.112305 
	C598.825623,676.484375 598.503784,676.858948 597.972290,677.371094 
	C598.001282,677.044189 598.239929,676.579529 598.812988,676.112305 
z"/>
<path fill="#FC7911" opacity="1.000000" stroke="none" 
	d="
M599.936096,675.189087 
	C600.002441,675.406738 599.802673,675.700134 599.340942,676.078247 
	C599.276001,675.863525 599.472961,675.564148 599.936096,675.189087 
z"/>
<path fill="#FC7911" opacity="1.000000" stroke="none" 
	d="
M605.073364,671.531860 
	C605.164124,671.930115 604.911987,672.094971 604.348083,672.179138 
	C604.349304,671.956421 604.580750,671.689758 605.073364,671.531860 
z"/>
<path fill="#FC7911" opacity="1.000000" stroke="none" 
	d="
M602.087891,673.540710 
	C602.187744,673.938660 601.940552,674.114380 601.380432,674.218689 
	C601.373840,673.986084 601.598267,673.709900 602.087891,673.540710 
z"/>
<path fill="#FC7911" opacity="1.000000" stroke="none" 
	d="
M600.973877,674.219421 
	C601.043823,674.446228 600.839722,674.739380 600.372681,675.118225 
	C600.306458,674.897888 600.503113,674.591858 600.973877,674.219421 
z"/>
<path fill="#FC7911" opacity="1.000000" stroke="none" 
	d="
M597.140625,677.638550 
	C597.317627,677.987610 597.183228,678.161377 596.843933,678.363831 
	C596.758545,678.126160 596.821960,677.816467 597.140625,677.638550 
z"/>
<path fill="#FC7911" opacity="1.000000" stroke="none" 
	d="
M596.158325,678.572937 
	C596.354675,678.916504 596.213562,679.111755 595.849548,679.347290 
	C595.754211,679.111877 595.818909,678.790955 596.158325,678.572937 
z"/>
<path fill="#FC7911" opacity="1.000000" stroke="none" 
	d="
M595.145264,679.570007 
	C595.328491,679.927856 595.167114,680.133301 594.762024,680.370728 
	C594.677429,680.125366 594.771545,679.797058 595.145264,679.570007 
z"/>
<path fill="#FC7911" opacity="1.000000" stroke="none" 
	d="
M594.162720,680.501099 
	C594.383240,680.836853 594.241577,681.054932 593.856384,681.322998 
	C593.748718,681.090881 593.811279,680.760986 594.162720,680.501099 
z"/>
<path fill="#FC7911" opacity="1.000000" stroke="none" 
	d="
M591.871216,683.169678 
	C591.950562,683.374084 591.772522,683.697510 591.339661,684.141968 
	C591.261169,683.938293 591.437500,683.613525 591.871216,683.169678 
z"/>
<path fill="#FD5E00" opacity="1.000000" stroke="none" 
	d="
M358.992126,649.535217 
	C353.348602,649.640686 347.708710,649.442993 341.622864,649.172302 
	C339.214539,649.002686 337.252136,648.906128 335.289764,648.809570 
	C335.288849,648.542175 335.287933,648.274841 335.287048,648.007446 
	C342.875122,648.007446 350.463226,648.007446 358.518311,648.013916 
	C358.988770,648.424255 358.992218,648.828186 358.992126,649.535217 
z"/>
<path fill="#FD8601" opacity="1.000000" stroke="none" 
	d="
M413.904755,656.636719 
	C414.172852,656.365723 414.571625,656.254517 414.977997,656.199341 
	C415.048035,656.189941 415.150482,656.419006 415.237976,656.537903 
	C414.838013,656.630432 414.437988,656.722961 413.904755,656.636719 
z"/>
<path fill="#FC8603" opacity="1.000000" stroke="none" 
	d="
M397.281158,652.399780 
	C397.154999,652.558655 396.935699,652.581543 396.716400,652.604492 
	C396.873596,652.490906 397.030823,652.377319 397.281158,652.399780 
z"/>
<path fill="#FD8601" opacity="1.000000" stroke="none" 
	d="
M644.640442,653.003418 
	C644.694641,653.734802 644.377075,654.472046 644.027100,655.509705 
	C643.830261,655.861328 643.665833,655.912598 642.999512,655.680420 
	C641.334534,655.268799 640.171326,655.140503 639.004028,655.006470 
	C638.999939,655.000671 638.987793,654.987793 638.987793,654.987793 
	C640.748108,654.328308 642.508423,653.668762 644.640442,653.003418 
z"/>
<path fill="#FD8601" opacity="1.000000" stroke="none" 
	d="
M637.433228,657.536560 
	C636.265503,657.370056 635.082520,657.191589 633.448486,657.022461 
	C634.743469,656.352356 636.489319,655.672913 638.611511,654.990601 
	C638.987793,654.987793 638.999939,655.000671 638.827393,655.266602 
	C638.248962,656.188049 637.843079,656.843689 637.437195,657.499268 
	C637.437195,657.499268 637.417908,657.524597 637.433228,657.536560 
z"/>
<path fill="#11110F" opacity="1.000000" stroke="none" 
	d="
M297.009583,749.620239 
	C295.151550,749.222961 293.141083,748.505249 291.066559,747.429749 
	C292.954041,747.814636 294.905579,748.557251 297.009583,749.620239 
z"/>
<path fill="#171815" opacity="1.000000" stroke="none" 
	d="
M306.352112,752.971802 
	C306.000977,752.988281 306.000031,752.576233 305.999451,752.370239 
	C306.359100,752.229736 306.719299,752.295227 307.238098,752.600159 
	C307.165558,752.878235 306.934418,752.916809 306.352112,752.971802 
z"/>
<path fill="#0D0A1B" opacity="1.000000" stroke="none" 
	d="
M537.105469,804.538696 
	C538.920898,804.548706 540.828125,804.923340 542.917114,805.617676 
	C541.131653,805.592712 539.164490,805.247986 537.105469,804.538696 
z"/>
<path fill="#171815" opacity="1.000000" stroke="none" 
	d="
M543.776245,806.071838 
	C544.012451,806.147522 543.993958,806.573059 543.991699,806.786011 
	C543.734375,806.783508 543.479370,806.568054 543.142334,806.111084 
	C543.060242,805.869568 543.539978,805.996155 543.776245,806.071838 
z"/>
<path fill="#FC7911" opacity="1.000000" stroke="none" 
	d="
M637.783447,657.412109 
	C637.843079,656.843689 638.248962,656.188049 638.831482,655.272339 
	C640.171326,655.140503 641.334534,655.268799 642.743042,655.648865 
	C641.368835,656.375488 639.749207,656.850281 637.783447,657.412109 
z"/>
</svg>